<?xml version="1.0" standalone="no"?>
<!DOCTYPE svg PUBLIC "-//W3C//DTD SVG 20010904//EN"
 "http://www.w3.org/TR/2001/REC-SVG-20010904/DTD/svg10.dtd">
<svg version="1.0" xmlns="http://www.w3.org/2000/svg"
 width="500.000000pt" height="500.000000pt" viewBox="0 0 500.000000 500.000000"
 preserveAspectRatio="xMidYMid meet">
<metadata>
Created by potrace 1.14, written by Peter Selinger 2001-2017
</metadata>
<g transform="translate(0.000000,500.000000) scale(0.100000,-0.100000)"
fill="#000000" stroke="none">
<path d="M0 2500 l0 -2500 2500 0 2500 0 0 2500 0 2500 -2500 0 -2500 0 0
-2500z m4695 1900 c3 -5 1 -10 -4 -10 -6 0 -11 5 -11 10 0 6 2 10 4 10 3 0 8
-4 11 -10z m5 -70 c0 -5 -4 -10 -9 -10 -6 0 -13 5 -16 10 -3 6 1 10 9 10 9 0
16 -4 16 -10z m-135 -78 c-3 -3 -11 0 -18 7 -9 10 -8 11 6 5 10 -3 15 -9 12
-12z m-1845 -56 c200 -27 372 -81 564 -177 l125 -63 22 28 c13 17 27 25 37 21
8 -3 19 0 23 7 4 7 11 9 15 5 13 -13 -19 -39 -43 -34 -12 2 -20 0 -17 -5 3 -5
0 -16 -7 -24 -6 -8 -10 -16 -8 -18 2 -1 26 -17 52 -35 26 -18 75 -55 108 -83
35 -28 66 -47 74 -44 10 3 17 -3 21 -19 3 -13 15 -32 26 -42 19 -17 20 -17 34
2 24 36 35 45 49 45 23 0 18 -37 -5 -43 -25 -6 -25 -19 -1 -34 17 -10 20 -9
25 13 4 14 11 22 15 19 5 -3 21 -1 35 5 32 12 34 -3 4 -24 l-22 -16 27 0 c15
0 27 -2 27 -4 0 -2 3 -12 7 -22 4 -11 3 -15 -5 -10 -6 3 -13 2 -16 -3 -10 -15
4 -40 19 -35 7 3 16 0 20 -6 4 -7 29 -8 72 -4 l66 7 -6 -29 c-3 -16 -4 -23 -1
-16 9 19 27 14 21 -7 -2 -10 0 -25 4 -34 13 -22 -7 -32 -21 -10 -8 14 -13 15
-17 5 -3 -7 -16 -25 -29 -39 -28 -30 -29 -34 -10 -27 11 4 13 0 9 -15 -3 -12
-12 -21 -20 -21 -13 0 -13 -3 -2 -16 8 -10 15 -12 17 -5 2 6 8 11 13 11 14 0
10 -32 -7 -51 -14 -16 -13 -22 14 -76 238 -474 242 -1041 13 -1517 -86 -178
-178 -305 -335 -462 -156 -156 -281 -246 -460 -333 -355 -173 -774 -217 -1154
-121 -129 33 -220 64 -206 72 5 3 249 61 542 128 292 68 532 126 532 130 0 3
-156 52 -347 109 -192 57 -366 109 -388 117 -72 24 -115 33 -115 23 0 -17 -28
-9 -42 13 -14 21 -12 26 31 76 25 29 46 59 46 65 0 7 5 12 11 12 10 0 64 59
229 246 17 19 83 94 148 167 65 72 115 132 110 132 -4 0 0 5 9 11 10 5 139
147 288 315 183 206 270 312 270 327 0 12 -6 33 -13 47 -10 21 -10 28 2 42 9
10 24 18 34 18 10 0 25 7 33 15 9 8 30 15 48 15 28 0 43 11 110 85 71 78 77
88 71 117 -6 26 -5 30 9 25 11 -5 16 -1 16 14 0 16 4 19 22 14 17 -6 20 -4 14
10 -5 15 -4 16 8 6 12 -10 16 -8 21 9 4 12 14 24 24 28 27 12 111 108 111 128
0 10 -7 27 -14 37 -14 18 -56 24 -56 7 0 -15 -26 -12 -39 4 -9 10 -9 16 -1 21
6 4 10 17 9 28 -2 12 5 37 14 55 10 17 13 32 7 32 -5 0 -10 -5 -10 -11 0 -6
-6 -9 -12 -6 -7 2 -12 11 -10 21 5 27 -13 18 -95 -47 -43 -35 -186 -149 -318
-253 -132 -104 -359 -284 -504 -399 -145 -116 -307 -244 -360 -285 -66 -52
-90 -76 -78 -78 9 -2 15 -9 11 -15 -3 -7 8 3 25 21 17 17 33 32 36 32 9 0 -16
-44 -36 -63 -26 -25 -24 -40 9 -64 25 -19 33 -20 70 -10 32 8 45 8 54 -1 9 -9
20 -4 47 19 20 17 74 60 119 96 63 49 83 70 79 84 -6 22 24 52 30 32 8 -22 23
-15 113 57 48 39 91 70 94 70 4 0 -53 -66 -125 -147 -147 -165 -157 -179 -162
-213 -2 -14 -13 -27 -28 -32 -23 -8 -23 -7 -5 7 11 8 17 17 14 20 -10 10 -113
-115 -110 -132 2 -9 -1 -12 -7 -8 -6 3 -24 -8 -39 -26 -15 -18 -35 -40 -44
-48 -10 -9 -18 -24 -18 -34 0 -10 -4 -16 -9 -13 -9 6 -131 -121 -131 -136 0
-4 11 -10 25 -14 17 -4 33 1 52 16 l28 22 3 -33 c2 -18 11 -38 20 -45 9 -7 14
-15 10 -19 -8 -9 -50 33 -44 44 3 5 -21 8 -54 7 -51 -1 -63 -5 -90 -31 -63
-59 -175 -197 -172 -211 2 -8 -3 -12 -12 -8 -9 3 -25 -11 -46 -40 -17 -25 -35
-46 -40 -46 -5 0 -7 -7 -3 -16 4 -10 -1 -17 -14 -20 -11 -3 -26 -16 -33 -29
-7 -13 -18 -23 -24 -22 -6 1 -10 -6 -8 -17 2 -10 -1 -15 -6 -12 -5 3 -20 -6
-32 -19 -13 -14 -19 -25 -14 -25 13 0 14 -52 2 -68 -7 -8 -23 -10 -44 -6 -29
5 -35 3 -43 -17 -5 -13 -10 -20 -10 -16 -1 5 -6 5 -12 1 -8 -4 -7 -9 2 -15 23
-14 29 -10 29 17 0 22 2 25 15 14 8 -7 15 -20 15 -30 0 -22 58 -46 74 -30 16
16 59 13 52 -5 -5 -14 23 -37 41 -34 4 1 15 0 23 -4 93 -35 110 -39 124 -28
12 10 17 8 26 -8 14 -27 50 -27 57 -1 6 22 6 22 27 14 9 -3 16 -15 16 -25 0
-10 5 -19 10 -19 6 0 10 -7 10 -16 0 -8 -4 -12 -10 -9 -5 3 -11 -1 -11 -9 -1
-9 -3 -20 -4 -26 -1 -5 -3 -15 -4 -21 -2 -19 -102 -113 -109 -103 -4 6 -14 14
-22 18 -9 4 -6 5 7 2 14 -2 32 7 54 30 27 28 30 36 19 49 -11 13 -9 15 14 15
24 0 27 4 24 28 -4 32 -7 32 -128 2 -102 -25 -103 -25 -158 -35 -36 -6 -43
-11 -39 -26 4 -15 2 -17 -13 -9 -13 7 -21 7 -25 0 -3 -5 -13 -10 -22 -10 -8 0
-27 -8 -41 -19 -15 -10 -38 -17 -51 -14 -14 2 -40 -2 -59 -8 -31 -10 -37 -9
-49 7 -7 10 -13 12 -13 5 0 -7 -9 -11 -22 -9 -20 3 -23 -1 -20 -26 3 -26 2
-27 -13 -12 -9 9 -13 20 -10 26 4 6 -10 17 -29 25 -29 12 -36 21 -36 43 0 18
3 23 9 14 6 -10 10 -10 21 2 10 13 8 19 -11 36 -13 11 -30 17 -36 15 -7 -2
-20 6 -29 18 -11 16 -18 18 -21 9 -4 -10 -9 -10 -23 3 -26 23 -33 2 -10 -28
30 -37 25 -50 -10 -32 -16 9 -30 23 -30 33 0 12 -9 17 -32 18 -36 1 -74 -27
-82 -62 -7 -25 -39 -33 -51 -14 -4 6 -11 8 -16 5 -5 -4 -9 1 -9 9 0 9 -6 16
-12 17 -10 0 -10 2 0 6 18 7 15 20 -8 26 -24 6 -27 27 -4 27 13 0 14 3 5 14
-9 11 -9 16 0 21 6 4 15 2 19 -5 12 -20 31 -1 24 24 -5 21 -1 24 31 30 60 12
70 74 15 89 -12 3 -20 0 -20 -8 0 -19 -18 -23 -80 -19 -30 2 -59 3 -65 4 -18
0 47 30 66 30 19 0 89 40 89 50 0 3 -10 16 -21 30 -14 17 -22 21 -26 13 -2 -7
-12 -13 -20 -13 -12 0 -9 7 10 25 27 28 41 86 23 97 -6 4 -12 3 -14 -2 -4 -11
-62 8 -82 27 -13 12 -13 15 0 23 19 12 40 13 40 1 0 -6 17 -10 38 -9 37 0 39
2 37 32 0 17 -6 41 -13 53 -7 12 -12 29 -12 37 0 9 -4 16 -10 16 -5 0 -3 -18
6 -41 15 -36 15 -42 2 -55 -13 -13 -18 -11 -39 20 -13 20 -27 36 -31 36 -5 0
-8 6 -8 13 0 6 -5 29 -11 50 -9 33 -12 36 -25 22 -9 -8 -22 -15 -29 -15 -7 0
-15 -8 -17 -17 -2 -11 -12 2 -26 35 -12 28 -27 52 -32 52 -6 0 -10 9 -10 20 0
11 -4 20 -8 20 -5 0 -9 15 -9 33 0 17 -11 76 -26 129 -108 401 -63 828 128
1209 148 295 392 551 682 717 165 94 398 175 583 201 41 6 86 13 100 15 63 9
285 4 380 -8z m1690 -26 c0 -5 -4 -10 -10 -10 -5 0 -10 5 -10 10 0 6 5 10 10
10 6 0 10 -4 10 -10z m-590 -10 c0 -5 -4 -10 -10 -10 -5 0 -10 5 -10 10 0 6 5
10 10 10 6 0 10 -4 10 -10z m-170 -49 c0 -6 -4 -13 -10 -16 -5 -3 -10 1 -10 9
0 9 5 16 10 16 6 0 10 -4 10 -9z m820 -26 c-10 -12 -10 -15 4 -15 9 0 16 -7
16 -15 0 -19 -24 -19 -40 0 -11 13 -10 18 6 30 25 19 29 19 14 0z m-770 -5 c0
-5 -7 -10 -16 -10 -8 0 -12 5 -9 10 3 6 10 10 16 10 5 0 9 -4 9 -10z m-103
-30 c13 0 13 -3 3 -15 -16 -19 -70 -20 -70 -1 0 16 19 26 38 20 8 -2 21 -4 29
-4z m603 -4 c0 -20 -35 -30 -57 -17 -16 9 -14 10 9 11 15 0 30 5 33 10 9 14
15 12 15 -4z m250 -21 c0 -8 -4 -15 -10 -15 -5 0 -7 7 -4 15 4 8 8 15 10 15 2
0 4 -7 4 -15z m55 -15 c3 -5 1 -10 -4 -10 -6 0 -11 5 -11 10 0 6 2 10 4 10 3
0 8 -4 11 -10z m-555 -90 c0 -5 -4 -10 -10 -10 -5 0 -10 5 -10 10 0 6 5 10 10
10 6 0 10 -4 10 -10z m57 -16 c-3 -3 -12 -4 -19 -1 -8 3 -5 6 6 6 11 1 17 -2
13 -5z m33 -24 c0 -5 -1 -10 -3 -10 -1 0 -17 -4 -34 -9 -30 -9 -31 -8 -20 10
12 20 57 27 57 9z m34 -31 c-3 -5 -10 -7 -15 -3 -5 3 -7 10 -3 15 3 5 10 7 15
3 5 -3 7 -10 3 -15z m-169 -18 c6 -11 -33 -36 -42 -27 -3 3 -3 12 0 21 7 17
33 20 42 6z m98 3 c9 -3 12 -14 9 -29 -2 -14 -9 -22 -14 -19 -5 3 -7 12 -4 20
3 7 1 16 -4 19 -4 3 -11 -1 -13 -7 -3 -8 -6 -6 -6 5 -1 18 7 21 32 11z m-73
-63 c0 -16 -12 -41 -20 -41 -4 0 -7 11 -7 25 0 15 5 25 13 25 8 0 14 -4 14 -9z
m112 -53 c-11 -11 -52 -2 -52 12 0 4 8 6 19 3 10 -3 22 1 27 8 6 11 8 11 12 0
2 -7 0 -17 -6 -23z m-22 -33 c0 -8 -4 -15 -10 -15 -5 0 -10 7 -10 15 0 8 5 15
10 15 6 0 10 -7 10 -15z m140 -55 c-25 -35 -40 -39 -40 -9 0 11 5 17 10 14 6
-3 10 1 10 9 0 10 9 16 21 16 l20 0 -21 -30z m-585 -201 c0 -15 -2 -27 -5 -27
-3 0 -7 0 -10 -1 -20 -8 -70 -9 -74 -2 -9 14 45 61 68 59 16 -2 21 -9 21 -29z
m-110 -59 c3 -5 -1 -10 -10 -10 -9 0 -13 5 -10 10 3 6 8 10 10 10 2 0 7 -4 10
-10z m221 -17 c-10 -10 -19 5 -10 18 6 11 8 11 12 0 2 -7 1 -15 -2 -18z m-61
7 c3 -5 2 -10 -4 -10 -5 0 -13 5 -16 10 -3 6 -2 10 4 10 5 0 13 -4 16 -10z
m33 -52 c-6 -18 -28 -21 -28 -4 0 9 7 16 16 16 9 0 14 -5 12 -12z m-348 -22
c0 -3 -4 -8 -10 -11 -5 -3 -10 -1 -10 4 0 6 5 11 10 11 6 0 10 -2 10 -4z m206
-39 c-3 -24 -27 -30 -34 -8 -3 8 0 11 7 7 7 -5 11 1 11 14 0 12 4 18 10 15 5
-3 8 -16 6 -28z m-36 -157 c0 -5 -2 -10 -4 -10 -3 0 -8 5 -11 10 -3 6 -1 10 4
10 6 0 11 -4 11 -10z m-35 -30 c3 -5 1 -10 -4 -10 -6 0 -11 5 -11 10 0 6 2 10
4 10 3 0 8 -4 11 -10z m-40 -34 c12 -12 12 -16 0 -26 -8 -6 -24 -9 -35 -5 -20
6 -21 8 -4 26 20 23 22 23 39 5z m-960 -437 c4 -11 5 -22 3 -25 -8 -7 -48 27
-43 37 11 16 33 10 40 -12z m-15 -89 c0 -5 -8 -10 -17 -10 -15 0 -16 2 -3 10
19 12 20 12 20 0z m340 0 c0 -5 -4 -10 -10 -10 -5 0 -10 5 -10 10 0 6 5 10 10
10 6 0 10 -4 10 -10z m-40 -50 c0 -11 -4 -20 -9 -20 -14 0 -23 18 -16 30 10
17 25 11 25 -10z m36 -37 c-10 -10 -19 5 -10 18 6 11 8 11 12 0 2 -7 1 -15 -2
-18z m-146 -264 c0 -11 -27 -12 -34 0 -3 4 -3 11 0 14 8 8 34 -3 34 -14z
m-360 -243 c0 -16 -18 -31 -27 -22 -8 8 5 36 17 36 5 0 10 -6 10 -14z m-201
-188 c16 -10 19 -48 3 -48 -8 0 -31 34 -32 48 0 15 5 15 29 0z m-1094 -48 c-3
-5 -10 -10 -16 -10 -5 0 -9 5 -9 10 0 6 7 10 16 10 8 0 12 -4 9 -10z m1150
-24 c21 5 27 4 23 -7 -5 -17 -47 -23 -67 -10 -7 5 -10 14 -6 21 6 9 9 9 15 0
4 -7 17 -9 35 -4z m-1105 -96 c0 -5 -5 -10 -11 -10 -5 0 -7 5 -4 10 3 6 8 10
11 10 2 0 4 -4 4 -10z m920 -9 c0 -18 -17 -20 -36 -6 -18 14 -18 14 9 15 15 0
27 -4 27 -9z m10 -40 c0 -5 -7 -14 -15 -21 -16 -14 -18 -10 -9 14 6 17 24 22
24 7z m60 -21 c0 -5 -9 -10 -20 -10 -13 0 -26 -12 -37 -35 -12 -25 -20 -32
-29 -24 -8 7 -14 6 -20 -2 -4 -7 0 -17 8 -23 13 -10 14 -15 3 -29 -13 -19 -55
-23 -55 -6 0 6 5 19 10 30 8 13 7 25 0 39 -10 19 -9 20 14 14 20 -5 28 -2 33
12 6 17 8 16 14 -6 7 -24 7 -23 8 6 1 17 4 34 8 37 10 11 63 8 63 -3z m194
-146 c4 -9 4 -19 2 -21 -7 -7 -66 8 -66 16 0 25 55 29 64 5z m-1044 -4 c0 -5
-11 -12 -24 -16 -15 -3 -29 -17 -35 -35 -5 -16 -15 -29 -22 -29 -6 0 -9 7 -5
15 3 9 0 15 -8 15 -8 0 -17 8 -21 18 -5 14 -4 15 6 5 17 -17 49 -17 49 0 0 7
12 18 28 24 15 6 28 11 30 12 1 1 2 -3 2 -9z m30 -6 c0 -8 -5 -12 -10 -9 -6 4
-8 11 -5 16 9 14 15 11 15 -7z m850 -14 c0 -11 -4 -20 -9 -20 -5 0 -7 9 -4 20
3 11 7 20 9 20 2 0 4 -9 4 -20z m-620 -191 c0 -12 -7 -19 -20 -19 -26 0 -36
24 -18 43 16 18 38 4 38 -24z m-119 14 c20 -20 -36 -48 -73 -37 -17 5 -17 6 0
29 17 23 54 27 73 8z m963 -8 c3 -8 1 -15 -3 -15 -5 0 -11 7 -15 15 -3 8 -1
15 3 15 5 0 11 -7 15 -15z m-904 -49 c0 -3 -4 -8 -10 -11 -5 -3 -10 -1 -10 4
0 6 5 11 10 11 6 0 10 -2 10 -4z m600 -20 c0 -3 -4 -8 -10 -11 -5 -3 -10 -1
-10 4 0 6 5 11 10 11 6 0 10 -2 10 -4z m-590 -56 c0 -5 -4 -10 -10 -10 -5 0
-10 5 -10 10 0 6 5 10 10 10 6 0 10 -4 10 -10z"/>
<path d="M2115 3621 c-25 -53 -27 -64 -15 -72 13 -8 12 -11 -2 -20 -10 -5 -18
-14 -18 -20 0 -5 11 -2 25 8 13 10 25 27 25 39 0 12 5 35 11 52 6 17 9 41 7
53 -2 17 -10 8 -33 -40z"/>
<path d="M3695 3630 c3 -5 10 -10 16 -10 5 0 9 5 9 10 0 6 -7 10 -16 10 -8 0
-12 -4 -9 -10z"/>
<path d="M3840 3609 c0 -5 5 -7 10 -4 6 3 10 8 10 11 0 2 -4 4 -10 4 -5 0 -10
-5 -10 -11z"/>
<path d="M3635 3590 c-3 -5 -1 -10 4 -10 6 0 11 5 11 10 0 6 -2 10 -4 10 -3 0
-8 -4 -11 -10z"/>
<path d="M3656 3491 c-4 -7 -5 -15 -2 -18 9 -9 19 4 14 18 -4 11 -6 11 -12 0z"/>
<path d="M3657 3449 c7 -7 15 -10 18 -7 3 3 -2 9 -12 12 -14 6 -15 5 -6 -5z"/>
<path d="M1991 3364 c-12 -27 -11 -28 4 -12 10 9 16 21 13 28 -2 7 -10 -1 -17
-16z"/>
<path d="M2086 3373 c-4 -5 -33 -21 -64 -38 -56 -29 -58 -32 -120 -155 -34
-68 -60 -130 -57 -138 2 -7 1 -11 -4 -8 -4 3 -14 -7 -20 -22 l-13 -27 23 20
c16 14 23 16 26 8 6 -18 28 -16 43 2 7 8 25 15 41 15 l29 0 -35 -55 c-20 -30
-40 -67 -46 -82 -5 -15 -25 -59 -43 -98 -46 -96 -51 -115 -32 -115 8 0 19 -8
25 -17 8 -16 13 -14 51 16 42 34 66 36 37 3 -21 -23 -22 -52 -2 -52 20 0 19
-26 -1 -34 -19 -7 -34 1 -34 19 0 7 -7 16 -16 19 -23 9 -24 8 -24 -12 0 -14
-8 -18 -34 -18 -19 0 -33 3 -30 7 2 4 0 11 -6 14 -13 8 -76 -52 -84 -80 -4
-15 11 -37 59 -88 71 -76 100 -88 134 -56 19 18 25 19 32 8 6 -11 9 -11 13 1
14 40 125 731 119 745 -3 10 -1 20 4 24 10 6 46 191 39 198 -1 2 -6 0 -10 -4z
m-105 -263 c-19 -16 -37 -27 -40 -24 -7 7 50 54 64 54 6 -1 -5 -14 -24 -30z
m-93 -394 c-10 -7 -18 -18 -18 -25 0 -6 -4 -11 -10 -11 -17 0 -11 28 8 39 25
15 40 13 20 -3z m10 -150 c3 -12 -1 -17 -10 -14 -7 3 -15 13 -16 22 -3 12 1
17 10 14 7 -3 15 -13 16 -22z m-134 -22 c17 -7 22 -34 6 -34 -5 0 -10 7 -10
16 0 8 -3 13 -7 11 -5 -3 -17 -1 -28 4 -19 7 -19 8 2 8 12 1 28 -2 37 -5z"/>
<path d="M1196 3240 c-12 -70 -65 -396 -71 -448 -6 -46 -5 -51 10 -46 9 4 20
17 25 30 9 23 50 52 50 35 0 -5 -11 -19 -25 -32 -25 -24 -34 -59 -15 -59 6 0
10 6 10 14 0 8 8 21 19 28 10 7 22 29 26 48 9 44 45 86 57 68 10 -16 4 17 -42
227 -31 142 -38 164 -44 135z"/>
<path d="M1810 2885 c-7 -8 -18 -15 -26 -15 -7 0 -24 -15 -37 -32 -38 -50
-119 -218 -113 -234 8 -21 49 -2 65 32 8 16 20 32 27 36 6 5 11 21 10 38 -2
22 2 30 14 30 30 0 81 74 85 125 4 37 -5 44 -25 20z"/>
<path d="M1139 2681 c-30 -25 -38 -40 -44 -78 -3 -27 -9 -59 -12 -72 -4 -17
-2 -22 8 -19 7 2 14 20 16 39 5 50 10 59 32 59 13 0 23 11 31 35 20 59 10 70
-31 36z"/>
<path d="M1303 2583 c-16 -33 -18 -67 -4 -44 8 12 13 12 35 -2 21 -14 24 -21
15 -35 -9 -14 -7 -27 10 -57 11 -22 21 -48 21 -58 0 -10 4 -16 9 -12 6 3 6 17
1 33 -4 15 -14 55 -20 90 -7 34 -16 62 -20 62 -4 0 -5 11 -2 25 6 35 -29 34
-45 -2z"/>
<path d="M1627 2534 c-10 -13 -25 -23 -34 -22 -24 4 -27 -19 -3 -25 11 -3 20
-13 20 -25 0 -21 -23 -46 -33 -35 -4 3 -7 0 -7 -7 0 -7 7 -18 16 -25 14 -10
26 -7 63 12 25 12 49 23 52 23 10 0 4 -90 -6 -94 -6 -2 -16 3 -23 10 -7 8 -9
14 -5 15 4 0 -5 5 -21 9 -23 7 -32 5 -42 -8 -18 -24 -18 -24 20 -49 42 -27 86
-40 86 -24 0 6 7 11 15 11 8 0 23 9 32 20 20 23 38 27 30 6 -8 -20 30 -66 54
-66 12 0 19 -7 19 -20 0 -23 4 -24 31 -10 23 13 25 43 4 60 -8 7 -12 16 -9 22
3 5 12 4 20 -3 8 -7 14 -7 14 -1 0 11 -89 52 -117 53 -11 0 -13 3 -5 6 8 3
-11 29 -53 70 -36 35 -65 71 -65 79 0 8 -7 14 -16 14 -10 0 -14 6 -10 15 9 23
-7 17 -27 -11z m43 -24 c0 -5 -2 -10 -4 -10 -3 0 -8 5 -11 10 -3 6 -1 10 4 10
6 0 11 -4 11 -10z"/>
<path d="M1070 2424 c-13 -33 -13 -54 1 -54 5 0 8 4 4 9 -3 5 0 13 6 17 6 3
15 0 20 -7 6 -11 9 -10 15 4 3 9 4 24 0 32 -3 8 -1 15 5 15 5 0 13 -10 18 -22
l8 -22 12 21 c15 29 17 28 -34 31 -41 2 -46 0 -55 -24z"/>
<path d="M1275 2404 c-4 -26 -3 -39 7 -45 8 -6 0 -7 -18 -3 -26 5 -33 2 -38
-14 -6 -19 11 -62 24 -62 9 0 25 15 35 31 6 9 23 33 39 53 25 32 27 39 15 50
-8 8 -24 17 -35 20 -19 6 -23 2 -29 -30z"/>
<path d="M2092 2369 c-33 -25 -49 -45 -45 -54 3 -8 0 -15 -6 -15 -6 0 -11 5
-11 12 0 8 -6 7 -16 -4 -22 -22 -10 -38 28 -38 25 0 28 2 19 14 -10 12 -8 17
8 25 11 6 26 23 33 39 9 16 20 26 31 24 20 -3 61 17 53 26 -18 17 -49 8 -94
-29z"/>
<path d="M1120 2373 c-24 -12 -24 -13 -3 -13 12 0 25 5 28 11 11 16 2 17 -25
2z"/>
<path d="M2284 2350 c-45 -10 -54 -18 -54 -51 0 -24 -4 -29 -24 -29 -22 0 -74
-22 -141 -59 -28 -15 -30 -21 -33 -84 -2 -37 -1 -67 3 -67 3 0 58 42 123 92
78 63 111 94 99 96 -29 6 -19 22 14 22 30 0 129 61 129 80 0 10 -71 9 -116 0z"/>
<path d="M1479 2309 c-21 -42 -21 -41 32 -53 21 -5 28 -2 32 14 3 12 14 20 26
20 22 0 24 4 12 34 -5 13 -19 20 -44 22 -35 2 -39 -1 -58 -37z m49 -23 c0 -21
-3 -23 -19 -13 -13 8 -15 15 -7 24 16 20 26 16 26 -11z"/>
<path d="M1370 2300 c0 -5 5 -10 11 -10 5 0 7 5 4 10 -3 6 -8 10 -11 10 -2 0
-4 -4 -4 -10z"/>
<path d="M1106 2281 c-11 -12 -30 -21 -43 -21 -34 0 -28 -41 7 -51 23 -6 22
-7 -9 -8 l-33 -1 23 -19 c14 -12 28 -16 33 -11 6 6 14 1 20 -13 8 -15 22 -23
44 -25 17 -2 32 -9 32 -15 1 -23 34 48 36 78 2 17 4 39 6 50 3 20 -22 37 -72
50 -19 4 -31 1 -44 -14z m73 -10 c11 -7 7 -13 -18 -25 -17 -9 -31 -22 -31 -29
0 -6 -5 -4 -11 5 -7 13 -5 23 8 38 19 22 31 24 52 11z"/>
<path d="M1967 2274 c-3 -3 -3 -12 0 -20 4 -10 -1 -13 -17 -12 -28 4 -38 -18
-13 -26 12 -3 10 -4 -6 -3 -13 1 -26 -4 -28 -10 -3 -7 2 -13 11 -13 9 0 16 -8
16 -20 0 -11 3 -20 6 -20 11 0 34 29 34 44 0 9 8 16 20 16 15 0 20 7 20 29 0
17 -6 31 -16 35 -19 7 -19 7 -27 0z"/>
<path d="M1578 2245 c-23 -27 -70 -31 -90 -8 -16 20 -37 15 -49 -11 -10 -21
-15 -23 -41 -15 -17 4 -36 13 -43 19 -8 6 -30 10 -51 8 l-36 -3 20 -25 20 -24
-24 -32 c-13 -17 -26 -46 -29 -65 -5 -30 -4 -32 6 -12 9 17 18 21 40 16 25 -5
29 -2 29 16 0 20 3 21 49 12 2 -1 -2 -8 -10 -17 -16 -19 2 -34 43 -34 40 0 43
-16 8 -46 -36 -33 -42 -90 -11 -118 19 -17 18 -18 -5 -43 -12 -13 -27 -22 -32
-19 -5 3 -20 -3 -32 -14 -13 -11 -19 -20 -14 -20 5 0 3 -4 -4 -9 -10 -6 -11
-17 -5 -42 7 -26 16 -35 41 -41 37 -10 38 -13 12 -53 -20 -30 -27 -75 -12 -75
8 0 30 40 59 108 9 22 10 31 3 27 -15 -9 -60 14 -60 31 0 7 9 15 19 19 11 3
24 18 30 33 8 24 10 25 10 5 1 -27 21 -41 21 -15 0 11 7 25 15 32 9 7 14 20
13 29 -4 18 28 54 41 47 9 -6 101 181 101 207 0 21 -9 22 -39 1 -18 -13 -25
-14 -34 -4 -9 10 -9 14 1 17 6 3 12 11 12 20 0 10 6 12 23 8 24 -8 25 -8 47
-6 15 1 40 44 40 68 0 15 -36 53 -50 53 -6 0 -20 -11 -32 -25z m-94 -31 c20
-8 21 -24 2 -24 -8 0 -16 7 -20 15 -6 17 -4 18 18 9z m155 -7 c8 -11 6 -18 -9
-32 -17 -16 -20 -16 -20 -2 0 8 -3 22 -6 31 -8 20 19 22 35 3z m-180 -26 c8
-5 9 -11 3 -15 -5 -3 -15 1 -22 9 -14 16 -3 20 19 6z m44 -167 c26 -34 15 -41
-16 -10 -14 14 -22 27 -19 30 9 10 16 6 35 -20z"/>
<path d="M1767 2256 c-4 -9 -14 -12 -25 -9 -14 3 -26 -4 -41 -25 -27 -38 -27
-62 1 -92 l22 -23 -27 6 c-24 7 -26 5 -33 -40 -5 -32 -3 -48 5 -51 6 -2 11
-15 11 -30 0 -24 -1 -25 -14 -7 -13 18 -14 17 -20 -11 -17 -85 -28 -166 -22
-171 3 -3 1 -12 -5 -20 -16 -18 20 -18 65 1 41 17 52 32 36 51 -8 9 -10 28 -6
46 3 19 1 38 -5 45 -9 11 -8 14 1 14 10 0 10 3 0 15 -20 24 -8 26 33 8 35 -16
54 -42 22 -29 -9 3 -15 0 -15 -10 0 -8 5 -12 10 -9 6 4 13 -7 16 -24 6 -26 9
-29 25 -20 24 12 24 28 2 45 -17 12 -16 13 5 14 13 0 22 -6 22 -16 0 -8 4 -13
10 -9 5 3 7 12 3 20 -3 10 1 15 13 15 23 1 45 18 62 48 16 29 15 35 -8 60 -20
21 -80 32 -80 14 0 -11 -77 -33 -94 -26 -12 5 -12 9 2 35 17 29 54 40 67 19 3
-5 22 2 42 16 20 14 43 22 50 20 24 -9 14 38 -13 64 -19 17 -38 25 -65 25 -31
0 -39 3 -39 17 0 10 5 18 10 18 6 0 10 5 10 10 0 15 -27 12 -33 -4z m83 -70
c0 -8 -4 -17 -9 -21 -12 -7 -24 12 -16 25 9 15 25 12 25 -4z m17 -42 c-3 -3
-12 -4 -19 -1 -8 3 -5 6 6 6 11 1 17 -2 13 -5z"/>
<path d="M1246 2174 c-13 -34 -7 -45 14 -27 24 21 25 29 6 36 -8 3 -17 -1 -20
-9z"/>
<path d="M1026 2104 c4 -16 2 -29 -6 -34 -12 -7 -29 -73 -30 -118 0 -20 2 -21
21 -11 17 9 23 8 30 -2 6 -10 10 -9 15 6 5 11 3 20 -4 23 -15 5 -16 74 -1 89
7 7 8 19 4 30 -5 10 -8 21 -7 25 1 3 -5 9 -13 12 -12 4 -14 0 -9 -20z"/>
<path d="M1120 2086 c0 -2 7 -6 15 -10 8 -3 15 -1 15 4 0 6 -7 10 -15 10 -8 0
-15 -2 -15 -4z"/>
<path d="M1180 1995 c-10 -12 -10 -15 4 -15 9 0 16 7 16 15 0 8 -2 15 -4 15
-2 0 -9 -7 -16 -15z"/>
<path d="M1280 2004 c0 -5 17 -19 38 -31 32 -19 34 -22 14 -23 -20 0 -21 -3
-12 -20 6 -11 15 -20 20 -20 13 0 24 70 13 81 -12 12 -73 23 -73 13z"/>
<path d="M1086 1981 c-3 -4 3 -27 14 -49 11 -23 20 -47 20 -55 0 -7 14 -26 30
-42 l30 -29 0 27 c0 15 -7 30 -15 33 -8 4 -15 12 -15 20 0 8 -4 22 -9 32 -5 9
-14 29 -20 45 -11 27 -25 35 -35 18z"/>
<path d="M1059 1903 c13 -25 35 -30 47 -12 4 7 1 10 -7 7 -8 -3 -23 2 -33 11
-18 15 -18 15 -7 -6z"/>
<path d="M1750 1881 c0 -5 -3 -16 -6 -25 -3 -9 -2 -16 4 -16 13 0 23 38 11 46
-5 3 -9 1 -9 -5z"/>
<path d="M1074 1856 c-11 -6 -19 -17 -16 -24 2 -6 -1 -12 -7 -12 -6 0 -11 -5
-11 -11 0 -14 92 -7 97 8 3 7 -3 9 -17 6 -18 -5 -20 -2 -14 21 7 28 1 31 -32
12z"/>
<path d="M1054 1774 c3 -9 6 -18 6 -20 0 -2 4 -4 9 -4 5 0 7 9 4 20 -3 11 -10
20 -15 20 -6 0 -7 -7 -4 -16z"/>
<path d="M1151 1724 c0 -11 3 -14 6 -6 3 7 2 16 -1 19 -3 4 -6 -2 -5 -13z"/>
<path d="M1755 1440 c-3 -5 -2 -10 4 -10 5 0 13 5 16 10 3 6 2 10 -4 10 -5 0
-13 -4 -16 -10z"/>
<path d="M1230 1330 c0 -5 5 -10 11 -10 5 0 7 5 4 10 -3 6 -8 10 -11 10 -2 0
-4 -4 -4 -10z"/>
<path d="M1248 1304 c-8 -12 18 -74 31 -74 5 0 12 4 16 10 3 5 12 7 20 3 8 -3
15 -1 15 4 0 13 -39 35 -50 28 -6 -4 -14 4 -18 16 -5 12 -11 18 -14 13z"/>
<path d="M1131 1223 l-22 -18 21 -28 c27 -33 35 -34 56 -2 21 32 13 41 -19 21
-22 -15 -26 -15 -37 -1 -11 13 -8 15 20 15 20 0 30 4 28 12 -7 19 -24 20 -47
1z"/>
<path d="M1258 1213 c7 -3 16 -2 19 1 4 3 -2 6 -13 5 -11 0 -14 -3 -6 -6z"/>
<path d="M1490 1100 c0 -5 5 -10 11 -10 5 0 7 5 4 10 -3 6 -8 10 -11 10 -2 0
-4 -4 -4 -10z"/>
<path d="M1657 1069 c8 -8 16 -8 30 0 16 9 14 10 -11 11 -22 0 -27 -3 -19 -11z"/>
</g>
</svg>
