<svg width="45" height="45" viewBox="0 0 45 45" fill="none" xmlns="http://www.w3.org/2000/svg">
<g clip-path="url(#clip0_98_527)">
<path d="M43.6816 36.6181H42.7001L41.6732 34.8249L41.6684 34.8167C40.8739 33.452 39.5971 31.2396 38.8659 29.9649C38.253 28.9129 37.3264 28.3097 36.3225 28.3097C36.3218 28.3097 36.3211 28.3097 36.3205 28.3097C35.3169 28.3107 34.391 28.9146 33.7806 29.9669L33.7723 29.981C33.7541 30.0133 33.7359 30.0459 33.717 30.0788L26.3565 17.3292C25.6071 16.0304 24.4854 15.2847 23.2793 15.2834C23.2783 15.2834 23.2773 15.2834 23.2759 15.2834C22.0698 15.2834 20.9461 16.028 20.1918 17.3292C20.1918 17.3292 17.7903 21.4913 16.2477 24.1634C16.0078 23.7483 15.8251 23.4318 15.8203 23.4239C15.0715 22.1244 13.9495 21.3784 12.7428 21.3773C12.7421 21.3773 12.7414 21.3773 12.7404 21.3773C11.5336 21.3773 10.4102 22.1227 9.65801 23.4232L2.04414 36.6181H1.31836C0.590172 36.6181 0 37.2086 0 37.9368C0 38.6647 0.590172 39.2552 1.31836 39.2552H43.6816C44.4098 39.2552 45 38.6647 45 37.9368C45 37.2086 44.4098 36.6181 43.6816 36.6181ZM11.9411 24.7422C12.2518 24.2049 12.566 24.0141 12.7404 24.0141H12.7407C12.9144 24.0144 13.2272 24.2046 13.5365 24.7412C13.5873 24.8294 14.7855 26.9048 15.0708 27.3917C15.3153 27.8088 15.7668 28.0673 16.2498 28.0673H16.2532C16.7373 28.0659 17.1891 27.805 17.4326 27.3848C18.33 25.8326 22.4749 18.6486 22.4743 18.6493C22.7863 18.111 23.1012 17.9201 23.2763 17.9201H23.2766C23.4507 17.9204 23.7634 18.1106 24.0728 18.6472L32.5367 33.3078C32.7801 33.7291 33.2333 33.9907 33.7198 33.9907H33.7205C34.2073 33.9907 34.6608 33.7284 34.9043 33.3061L35.2057 32.7832C35.5212 32.2363 35.8192 31.7192 36.0647 31.2839C36.1776 31.091 36.2727 31.0027 36.3232 30.9653C36.3744 31.0027 36.4705 31.0913 36.5831 31.2846C37.3113 32.5539 38.5902 34.7697 39.3877 36.1392L39.6617 36.6181H5.08736L11.9411 24.7422Z" fill="#2B95E2"/>
<path d="M10.9623 16.5008C13.9125 16.5008 16.3123 14.1006 16.3123 11.1508C16.3123 8.20061 13.9125 5.80078 10.9623 5.80078C8.01247 5.80078 5.6123 8.20061 5.6123 11.1508C5.6123 14.1006 8.01247 16.5008 10.9623 16.5008ZM10.9623 8.4375C12.4585 8.4375 13.6756 9.65458 13.6756 11.1508C13.6756 12.6466 12.4585 13.8637 10.9623 13.8637C9.46645 13.8637 8.24937 12.6466 8.24937 11.1508C8.24937 9.65458 9.46645 8.4375 10.9623 8.4375Z" fill="#2B95E2"/>
</g>
<defs>
<clipPath id="clip0_98_527">
<rect width="45" height="45" fill="white"/>
</clipPath>
</defs>
</svg>
