<svg width="33" height="33" viewBox="0 0 33 33" fill="none" xmlns="http://www.w3.org/2000/svg">
<g clip-path="url(#clip0_57_199)">
<path d="M11.6613 19.3179L6.76294 20.5633C5.94812 20.7704 5.15625 20.1546 5.15625 19.3138C5.15625 18.7242 5.55631 18.2098 6.12775 18.0645L11.0261 16.8191C11.8409 16.612 12.6328 17.2277 12.6328 18.0685C12.6328 18.6581 12.2328 19.1726 11.6613 19.3179ZM12.6328 7.75604C12.6328 6.91525 11.8409 6.29953 11.0261 6.50668L6.12769 7.75204C5.55631 7.89725 5.15625 8.41172 5.15625 9.00134C5.15625 9.84213 5.94812 10.4578 6.763 10.2507L11.6614 9.00533C12.2328 8.86006 12.6328 8.34559 12.6328 7.75604ZM12.6328 12.9123C12.6328 12.0715 11.8409 11.4558 11.0261 11.6629L6.12769 12.9083C5.55631 13.0535 5.15625 13.568 5.15625 14.1576C5.15625 14.9984 5.94812 15.6141 6.763 15.4069L11.6614 14.1616C12.2328 14.0163 12.6328 13.5018 12.6328 12.9123ZM31.7109 23.9763C32.4229 23.9763 33 23.3992 33 22.6873V7.95436C33 5.59376 31.4021 3.5388 29.1142 2.95705L18.4337 0.241704C17.1686 -0.079917 15.8313 -0.079917 14.5663 0.241704L3.88575 2.95711C1.59786 3.53887 0 5.59376 0 7.95436V29.1313C0 30.3335 0.544307 31.4462 1.49338 32.1842C2.18245 32.72 3.01035 33.0003 3.85823 33.0003C4.17811 33.0003 4.50089 32.9604 4.82006 32.8792L16.5 29.9097L28.1799 32.8792C29.345 33.1755 30.5575 32.9221 31.5066 32.1842C32.4557 31.4462 33 30.3335 33 29.1313C33 28.4193 32.4229 27.8422 31.7109 27.8422C30.999 27.8422 30.4219 28.4193 30.4219 29.1313C30.4219 29.532 30.2404 29.903 29.9241 30.1489C29.6078 30.3949 29.2037 30.4794 28.8152 30.3806L17.7891 27.5774V6.38061C17.7891 5.66866 17.2119 5.09154 16.5 5.09154C15.7881 5.09154 15.2109 5.66866 15.2109 6.38061V27.5773L4.18481 30.3806C3.79655 30.4794 3.3923 30.3949 3.0759 30.1489C2.75956 29.903 2.57812 29.532 2.57812 29.1313V7.95436C2.57812 6.77403 3.37709 5.74658 4.521 5.45571L15.2015 2.74036C16.051 2.52438 16.949 2.52438 17.7985 2.74036L28.4789 5.45571C29.6229 5.74658 30.4219 6.77409 30.4219 7.95436V22.6873C30.4219 23.3992 30.999 23.9763 31.7109 23.9763ZM8.70575 22.6632L6.12769 23.3496C5.55631 23.4949 5.15625 24.0094 5.15625 24.599C5.15625 25.4398 5.94812 26.0555 6.763 25.8484L9.34106 25.1619C9.9125 25.0167 10.3126 24.5022 10.3126 23.9126C10.3125 23.0718 9.52063 22.4561 8.70575 22.6632Z" fill="#2B95E2"/>
</g>
<defs>
<clipPath id="clip0_57_199">
<rect width="33" height="33" fill="white"/>
</clipPath>
</defs>
</svg>
