<svg width="238" height="238" viewBox="0 0 238 238" fill="none" xmlns="http://www.w3.org/2000/svg">
<circle cx="119" cy="119.926" r="96.7743" fill="black" fill-opacity="0.17"/>
<path d="M173.751 68.6882C160.093 54.3287 140.802 45.3774 119.419 45.3774C78.0157 45.3774 44.4512 78.9398 44.4512 120.341C44.4512 131.87 47.0538 142.79 51.7037 152.548L62.5231 85.8327L72.6973 132.631L104.698 66.5003L93.3229 132.472L173.751 68.6882Z" fill="#F2F2F2" fill-opacity="0.05"/>
<path d="M179.865 75.9904L99.68 166.375L140.736 178.691L91.8887 190.088C100.412 193.454 109.699 195.304 119.419 195.304C160.822 195.304 194.387 161.742 194.387 120.341C194.387 103.746 188.994 88.4098 179.865 75.9904Z" fill="#F2F2F2" fill-opacity="0.05"/>
<path d="M78.9846 183.477L104.349 177.559L82.9317 171.134L138.182 108.856L79.9183 155.062L84.1615 130.453L69.3071 161.15L63.863 136.108L59.1816 164.974C64.6003 172.274 71.3147 178.555 78.9846 183.477Z" fill="#F2F2F2" fill-opacity="0.05"/>
<path d="M237.71 127.309C238.853 110.97 236.612 94.571 231.125 79.1385C225.639 63.7061 217.026 49.5723 205.825 37.622C194.625 25.6717 181.078 16.1622 166.033 9.68883C150.987 3.21544 134.768 -0.0824618 118.389 0.00156606L118.427 7.35618C133.793 7.27735 149.011 10.3714 163.126 16.4447C177.241 22.518 189.951 31.4398 200.459 42.6515C210.967 53.8632 219.048 67.1235 224.195 81.6021C229.343 96.0808 231.446 111.466 230.373 126.795L237.71 127.309Z" fill="#6E7598"/>
<path d="M181.729 220.124C195.937 211.31 208.129 199.601 217.51 185.76C226.89 171.918 233.248 156.256 236.169 139.792L228.928 138.507C226.187 153.953 220.222 168.648 211.421 181.634C202.621 194.62 191.182 205.605 177.852 213.874L181.729 220.124Z" fill="#2B94E1"/>
<path d="M60.3073 222.519C77.319 232.164 96.4455 237.468 115.995 237.962C135.544 238.456 154.914 234.124 172.391 225.35L169.091 218.777C152.695 227.009 134.522 231.073 116.181 230.61C97.8394 230.146 79.895 225.17 63.9348 216.121L60.3073 222.519Z" fill="#6BBED8"/>
<path d="M0.195237 125.814C1.22141 143.706 6.27556 161.135 14.9804 176.801C23.6853 192.466 35.8161 205.963 50.4673 216.284L54.7029 210.272C40.9572 200.589 29.5762 187.926 21.4093 173.228C13.2424 158.531 8.50064 142.179 7.53788 125.393L0.195237 125.814Z" fill="#587D7B"/>
<path d="M43.4627 27.0483C30.3351 37.8325 19.6688 51.3025 12.1811 66.5527C4.6934 81.8028 0.557873 98.4794 0.0526336 115.461L7.40409 115.68C7.87811 99.7477 11.758 84.1017 18.783 69.7941C25.8079 55.4865 35.815 42.849 48.1312 32.7313L43.4627 27.0483Z" fill="#4E5059"/>
<path d="M107.435 0.563323C87.4263 2.51713 68.239 9.50811 51.6634 20.8838L55.8251 26.9478C71.3762 16.2752 89.3777 9.71627 108.15 7.88322L107.435 0.563323Z" fill="#949C9E"/>
</svg>
