<?xml version="1.0" standalone="no"?>
<!DOCTYPE svg PUBLIC "-//W3C//DTD SVG 1.1//EN" "http://www.w3.org/Graphics/SVG/1.1/DTD/svg11.dtd" >
<svg xmlns="http://www.w3.org/2000/svg" xmlns:xlink="http://www.w3.org/1999/xlink" version="1.1">
<metadata>
Created by FontForge 20201107 at Fri Oct 18 18:05:28 2002
 By Unknown
Copyright (C) 1993; Type Market Ltd. Moscow, 119136, Box 20; phone:(095)1427712; Created by A.Kustov
</metadata>
<defs>
<font id="EuropeExt-Bold-Italic" horiz-adv-x="861" >
  <font-face 
    font-family="EuropeExt"
    font-weight="700"
    font-style="italic"
    font-stretch="normal"
    units-per-em="1000"
    panose-1="4 0 8 0 0 0 0 0 0 0"
    ascent="780"
    descent="-220"
    x-height="494"
    cap-height="694"
    bbox="-64 -220 1705 896"
    underline-thickness="50"
    underline-position="-100"
    slope="-10"
    stemh="114"
    unicode-range="U+0020-2212"
  />
<missing-glyph horiz-adv-x="500" 
 />
    <glyph glyph-name=".notdef" horiz-adv-x="500" 
 />
    <glyph glyph-name="space" unicode=" " horiz-adv-x="346" 
 />
    <glyph glyph-name="space" unicode="&#xa0;" horiz-adv-x="346" 
 />
    <glyph glyph-name="exclam" unicode="!" horiz-adv-x="333" 
d="M71 250l78 444h166l-78 -444h-166zM27 0l29 166h166l-29 -166h-166z" />
    <glyph glyph-name="quotedbl" unicode="&#x22;" horiz-adv-x="356" 
d="M66 708h111l-63 -227h-66zM226 708h111l-63 -227h-66z" />
    <glyph glyph-name="numbersign" unicode="#" horiz-adv-x="633" 
d="M291 689h79l-56 -130h124l57 130h78l-56 -130h130l-32 -80h-133l-42 -100h131l-34 -80h-131l-57 -135h-80l59 135h-124l-61 -135h-79l61 135h-134l31 80h138l42 100h-137l37 80h134zM405 479h-125l-42 -100h124z" />
    <glyph glyph-name="dollar" unicode="$" horiz-adv-x="907" 
d="M452 559h-112c-30 0 -64 -37 -64 -88c0 -32 15 -49 40 -49h112zM513 291l-28 -160h71c69 0 127 17 127 97c0 51 -35 63 -99 63h-71zM486 753h108l-11 -63h79c148 0 231 -39 231 -147c0 -14 -1 -29 -4 -46h-166c0 39 -9 62 -123 62h-40l-24 -137h80
c169 0 240 -15 240 -128c0 -23 -3 -50 -9 -82c-30 -167 -119 -212 -315 -212h-71l-15 -89h-108l15 89h-89c-158 0 -224 48 -224 147c0 16 2 33 5 52h166c0 -54 36 -68 95 -68h71l28 160h-91c-164 0 -210 36 -210 123c0 24 3 52 9 84c22 122 95 192 291 192h71z" />
    <glyph glyph-name="percent" unicode="%" horiz-adv-x="1216" 
d="M439 536c2 13 4 24 4 33c0 34 -18 43 -66 43h-114c-64 0 -81 -17 -91 -74l-16 -88c-2 -10 -3 -19 -3 -27c0 -32 17 -43 69 -43h114c61 0 78 11 88 68zM520 429c-20 -105 -63 -141 -175 -141h-162c-96 0 -136 18 -136 89c0 15 2 32 5 52l23 127c20 112 59 148 180 148h162
c93 0 131 -25 131 -96c0 -15 -2 -32 -5 -52zM824 734l-339 -761h-101l339 761h101zM1048 248c2 13 4 24 4 33c0 34 -18 43 -66 43h-114c-64 0 -81 -17 -91 -74l-16 -88c-2 -10 -3 -19 -3 -27c0 -32 17 -43 69 -43h114c61 0 78 11 88 68zM1129 141
c-20 -105 -63 -141 -175 -141h-162c-96 0 -136 18 -136 89c0 15 2 32 5 52l23 127c20 112 59 148 180 148h162c93 0 131 -25 131 -96c0 -15 -2 -32 -5 -52z" />
    <glyph glyph-name="ampersand" unicode="&#x26;" horiz-adv-x="988" 
d="M752 64c0 0 -59 -64 -189 -64h-330c-118 0 -206 57 -206 184c0 147 85 223 203 252c-20 13 -31 33 -31 66c0 156 121 191 242 191h242c180 0 205 -105 205 -163c0 -14 -2 -26 -3 -32l-2 -5h-166c0 38 -9 62 -86 62h-177c-54 0 -88 -7 -88 -53c0 -13 5 -31 47 -58
l310 -194s19 17 39 132h166c-27 -154 -78 -208 -78 -208l95 -62l-92 -110zM313 340c-58 0 -117 -49 -117 -125c0 -44 26 -77 119 -77h170c103 0 122 20 122 20z" />
    <glyph glyph-name="quotesingle" unicode="'" horiz-adv-x="249" 
d="M92 708h111l-62 -227h-67z" />
    <glyph glyph-name="parenleft" unicode="(" horiz-adv-x="329" 
d="M241 20l-24 -138c-128 0 -223 43 -223 181c0 21 3 43 7 68l65 372c36 201 173 255 305 255l-24 -138c-85 0 -130 -30 -146 -118l-65 -371c-2 -10 -3 -19 -3 -28c0 -60 42 -83 108 -83z" />
    <glyph glyph-name="parenright" unicode=")" horiz-adv-x="329" 
d="M-14 20c72 0 131 34 145 111l65 371c3 14 4 26 4 37c0 59 -36 81 -108 81l24 138c116 0 222 -41 222 -187c0 -21 -3 -43 -7 -68l-65 -372c-34 -193 -156 -249 -304 -249z" />
    <glyph glyph-name="asterisk" unicode="*" horiz-adv-x="344" 
d="M184 548c0 0 41 -10 86 -19c26 -6 32 -23 32 -33c0 -21 -20 -42 -40 -42c-11 0 -23 6 -34 20c-24 34 -50 65 -50 65c3 -37 9 -92 9 -98c0 -33 -25 -47 -43 -47c-17 0 -28 11 -28 28c0 11 4 23 7 30c18 38 37 75 42 84c-7 -7 -39 -36 -72 -66c-14 -14 -28 -19 -39 -19
c-17 0 -30 12 -30 30c0 19 17 36 47 43c43 11 86 23 91 24l-85 18c-21 4 -33 17 -33 31c0 39 22 42 41 42c11 0 22 -5 33 -19c24 -32 53 -64 53 -64c5 -1 -15 68 -15 97s25 47 42 47c18 0 30 -11 30 -29c0 -8 -4 -22 -7 -29c-21 -44 -41 -86 -41 -86s33 33 70 67
c15 13 29 19 40 19c20 0 30 -17 30 -29c0 -19 -18 -37 -47 -44c-46 -10 -89 -21 -89 -21z" />
    <glyph glyph-name="plus" unicode="+" horiz-adv-x="564" 
d="M79 392h144l26 145h135l-26 -145h157l-24 -138h-157l-26 -144h-135l26 144h-144z" />
    <glyph glyph-name="comma" unicode="," horiz-adv-x="333" 
d="M75 -27l29 166h166l-29 -166c-28 -161 -82 -179 -226 -179l17 92c52 0 75 13 83 56l5 31h-45z" />
    <glyph glyph-name="minus" unicode="&#x2212;" horiz-adv-x="538" 
d="M79 392h408l-24 -138h-408z" />
    <glyph glyph-name="period" unicode="." horiz-adv-x="308" 
d="M59 0l29 166h166l-29 -166h-166z" />
    <glyph glyph-name="slash" unicode="/" horiz-adv-x="338" 
d="M413 728l-366 -817h-111l366 817h111z" />
    <glyph glyph-name="zero" unicode="0" horiz-adv-x="916" 
d="M205 254c-3 -17 -5 -31 -5 -44c0 -56 32 -72 114 -72h220c106 0 134 23 151 117l33 185c3 18 5 34 5 47c0 61 -35 77 -116 77h-214c-104 0 -138 -26 -155 -125zM848 237c-31 -173 -99 -237 -293 -237h-305c-155 0 -221 48 -221 162c0 22 2 47 7 75l38 218
c34 190 111 247 300 247h305c143 0 216 -36 216 -161c0 -25 -3 -53 -9 -86z" />
    <glyph glyph-name="one" unicode="1" 
d="M503 0h-166l96 545h-51l-211 -145l-65 127l244 167h275z" />
    <glyph glyph-name="two" unicode="2" 
d="M827 464c-26 -146 -139 -208 -288 -217l-218 -13c-100 -6 -124 -22 -132 -66l-6 -37h584l-23 -131h-750l28 158c19 109 73 202 289 214l223 12c95 5 131 39 131 120c0 44 -30 59 -123 59h-116c-160 0 -171 -25 -189 -125h-166c26 146 70 256 294 256h250
c160 0 221 -35 221 -145c0 -24 -3 -53 -9 -85z" />
    <glyph glyph-name="three" unicode="3" horiz-adv-x="876" 
d="M341 290l22 123h189c80 0 120 30 120 108c0 43 -30 50 -92 50h-204c-65 0 -119 -24 -130 -84h-156c16 91 83 215 272 215h279c110 0 204 -26 204 -134c0 -134 -69 -197 -137 -205c28 -8 90 -39 90 -123c0 -11 -1 -22 -3 -35c-29 -165 -143 -205 -277 -205h-280
c-139 0 -204 47 -204 146c0 16 2 32 5 51h161c0 -62 24 -66 101 -66h211c63 0 121 13 121 101c0 45 -37 58 -142 58h-150z" />
    <glyph glyph-name="four" unicode="4" 
d="M811 694l-72 -407h94l-25 -138h-93l-26 -149h-166l26 149h-518l41 233l442 312h297zM573 287l48 269h-39l-357 -247l-4 -22h352z" />
    <glyph glyph-name="five" unicode="5" 
d="M795 233c-28 -160 -102 -233 -297 -233h-249c-147 0 -221 48 -221 150c0 15 2 30 5 47h166c0 -56 21 -66 92 -66h233c73 0 108 52 108 137c0 46 -21 68 -72 68h-189c-103 0 -132 -24 -151 -81h-165l77 439h726l-23 -131h-560l-27 -151c34 28 69 55 190 55h142
c167 0 223 -51 223 -155c0 -24 -3 -50 -8 -79z" />
    <glyph glyph-name="six" unicode="6" 
d="M392 571c-100 0 -139 -19 -152 -94l-16 -91c30 29 68 63 190 63h128c162 0 254 -32 254 -148c0 -15 -2 -33 -5 -51c-35 -201 -93 -250 -301 -250h-243c-149 0 -227 44 -227 146c0 14 1 28 4 44l54 309c25 140 102 203 293 203h243c154 0 221 -47 221 -146
c0 -16 -2 -33 -5 -51h-156c0 51 -9 66 -110 66h-172zM337 318c-110 0 -145 -48 -145 -125c0 -43 27 -62 115 -62h172c117 0 144 40 144 120c0 45 -26 67 -111 67h-175z" />
    <glyph glyph-name="seven" unicode="7" 
d="M115 694h767l-20 -115l-560 -579h-207l540 556h-544z" />
    <glyph glyph-name="eight" unicode="8" 
d="M342 298c-98 0 -140 -38 -140 -107c0 -43 30 -68 111 -68h178c108 0 141 42 141 110c0 39 -26 65 -111 65h-179zM390 571c-104 0 -126 -31 -126 -101c0 -35 22 -49 101 -49h178c106 0 131 32 131 99c0 39 -25 51 -105 51h-179zM630 694c150 0 215 -33 215 -131
c0 -97 -40 -171 -154 -202c48 -11 106 -43 106 -127c0 -156 -113 -234 -291 -234h-253c-149 0 -222 47 -222 149c0 140 105 207 166 212c-50 14 -96 50 -96 118c0 10 1 20 3 31c24 140 87 184 269 184h257z" />
    <glyph glyph-name="nine" unicode="9" 
d="M469 131c100 0 138 17 151 92l16 91c-30 -29 -68 -63 -190 -63h-128c-163 0 -254 33 -254 149c0 16 2 32 5 50c36 201 94 252 302 252h243c149 0 227 -46 227 -149c0 -13 -1 -28 -4 -43l-54 -309c-25 -140 -103 -201 -294 -201h-242c-155 0 -222 46 -222 145
c0 15 2 32 5 50h156c0 -55 7 -64 111 -64h172zM382 571c-119 0 -145 -43 -145 -122c0 -45 26 -67 111 -67h175c111 0 146 52 146 127c0 42 -28 62 -115 62h-172z" />
    <glyph glyph-name="colon" unicode=":" horiz-adv-x="329" 
d="M33 0l29 166h166l-29 -166h-166zM88 316l29 166h166l-29 -166h-166z" />
    <glyph glyph-name="semicolon" unicode=";" horiz-adv-x="329" 
d="M131 289l29 166h166l-29 -166h-166zM75 -27l29 166h166l-29 -166c-28 -161 -82 -179 -226 -179l17 92c52 0 75 13 83 56l5 31h-45z" />
    <glyph glyph-name="less" unicode="&#x3c;" horiz-adv-x="367" 
d="M22 294l17 99l321 194l-24 -134l-188 -107l150 -108l-23 -134z" />
    <glyph glyph-name="equal" unicode="=" horiz-adv-x="538" 
d="M60 279h408l-19 -111h-408zM96 479h408l-20 -111h-408z" />
    <glyph glyph-name="greater" unicode="&#x3e;" horiz-adv-x="367" 
d="M324 294l-318 -190l23 134l188 108l-150 107l24 134l250 -194z" />
    <glyph glyph-name="question" unicode="?" horiz-adv-x="867" 
d="M233 483h-166c19 106 102 219 291 219h271c164 0 227 -36 227 -136c0 -19 -2 -40 -6 -63c-26 -145 -116 -173 -294 -194c-95 -11 -106 -26 -110 -51l-7 -37h-166l11 64c14 79 85 135 207 151l99 13c79 10 95 42 95 63c0 40 -37 52 -151 52h-127c-128 0 -165 -30 -174 -81
zM234 0l29 166h166l-29 -166h-166z" />
    <glyph glyph-name="at" unicode="@" horiz-adv-x="652" 
d="M339 519c-66 0 -122 -64 -122 -119c0 -33 16 -73 72 -73c66 0 118 59 118 121c0 25 -14 71 -68 71zM369 668c-176 0 -283 -148 -283 -280c0 -100 63 -188 201 -188c62 0 134 26 166 58l24 -36c-30 -32 -116 -66 -202 -66c-167 0 -242 104 -242 223c0 155 132 333 344 333
c100 0 240 -59 240 -220c0 -80 -35 -210 -152 -210c-52 0 -69 24 -69 49c-15 -20 -57 -49 -125 -49c-75 0 -109 48 -109 104c0 79 71 178 181 178c66 0 90 -29 100 -53l11 47h46l-48 -159c-7 -23 -10 -35 -10 -41c0 -18 7 -31 37 -31c65 0 92 100 92 160
c0 127 -102 181 -202 181z" />
    <glyph glyph-name="A" unicode="A" horiz-adv-x="983" 
d="M141 0h-194l490 694h246l243 -694h-195l-58 175h-411zM352 306h277l-87 258h-8z" />
    <glyph glyph-name="B" unicode="B" horiz-adv-x="887" 
d="M266 563l-26 -150h339c45 0 83 40 83 99c0 25 -12 51 -58 51h-338zM1 0l122 694h500c137 0 213 -36 213 -134c0 -57 -14 -169 -118 -194c54 -19 90 -42 90 -112c0 -14 -2 -31 -5 -50c-26 -149 -111 -204 -268 -204h-534zM218 290l-28 -159h333c93 0 119 29 119 112
c0 32 -18 47 -85 47h-339z" />
    <glyph glyph-name="C" unicode="C" horiz-adv-x="910" 
d="M676 240h167c-33 -185 -88 -240 -293 -240h-309c-157 0 -219 39 -219 155c0 26 3 56 9 90l35 197c36 203 111 260 315 260h276c141 0 231 -35 231 -169c0 -22 -2 -46 -7 -73h-166c1 5 3 18 3 26c0 55 -33 78 -117 78h-213c-111 0 -138 -19 -157 -128l-30 -172
c-3 -18 -5 -34 -5 -48c0 -64 38 -78 116 -78h213c99 0 137 18 151 102z" />
    <glyph glyph-name="D" unicode="D" horiz-adv-x="897" 
d="M190 138h299c124 0 157 35 172 118l32 182c2 9 4 25 4 36c0 54 -33 82 -134 82h-299zM122 694h536c142 0 210 -48 210 -171c0 -24 -3 -52 -8 -82l-33 -184c-32 -180 -111 -257 -290 -257h-537z" />
    <glyph glyph-name="E" unicode="E" horiz-adv-x="834" 
d="M7 0l122 694h709l-23 -131h-543l-27 -152h526l-21 -121h-526l-28 -159h543l-23 -131h-709z" />
    <glyph glyph-name="F" unicode="F" horiz-adv-x="813" 
d="M-1 0l122 694h709l-24 -138h-543l-23 -128h527l-24 -138h-527l-51 -290h-166z" />
    <glyph glyph-name="G" unicode="G" horiz-adv-x="936" 
d="M462 407h440l-33 -185c-29 -167 -112 -222 -291 -222h-336c-145 0 -221 50 -221 170c0 20 3 43 7 67l37 213c33 186 120 252 301 252h333c144 0 224 -29 224 -147c0 -19 -3 -41 -7 -66h-166c1 6 2 15 2 18c0 40 -32 57 -120 57h-245c-100 0 -141 -31 -159 -135l-31 -176
c-3 -19 -5 -35 -5 -49c0 -53 29 -66 117 -66h273c83 0 110 22 119 72l13 74h-274z" />
    <glyph glyph-name="H" unicode="H" horiz-adv-x="864" 
d="M280 694l-47 -266h429l47 266h166l-122 -694h-166l51 290h-429l-51 -290h-166l122 694h166z" />
    <glyph glyph-name="I" unicode="I" horiz-adv-x="328" 
d="M315 694l-122 -694h-166l122 694h166z" />
    <glyph glyph-name="J" unicode="J" horiz-adv-x="776" 
d="M19 299h166l-7 -39c-3 -15 -4 -29 -4 -42c0 -52 25 -80 96 -80h140c88 0 122 49 134 120l77 436h166l-79 -447c-30 -170 -120 -247 -297 -247h-188c-153 0 -221 57 -221 175c0 22 2 46 7 72z" />
    <glyph glyph-name="K" unicode="K" horiz-adv-x="909" 
d="M289 694l-45 -259h98l348 259h249l-466 -325l360 -369h-244l-269 297h-101l-52 -297h-166l122 694h166z" />
    <glyph glyph-name="L" unicode="L" horiz-adv-x="703" 
d="M-1 0l122 694h166l-98 -556h429l-24 -138h-595z" />
    <glyph glyph-name="M" unicode="M" horiz-adv-x="1217" 
d="M1220 694l-122 -694h-166l98 556h-22l-336 -556h-236l-140 556h-22l-106 -556h-158l122 694h309l132 -556h10l328 556h309z" />
    <glyph glyph-name="N" unicode="N" horiz-adv-x="1020" 
d="M5 0l122 694h279l325 -556h23l98 556h166l-122 -694h-285l-319 556h-23l-98 -556h-166z" />
    <glyph glyph-name="O" unicode="O" horiz-adv-x="916" 
d="M205 254c-3 -17 -5 -31 -5 -44c0 -56 32 -72 114 -72h220c106 0 134 23 151 117l33 185c3 18 5 34 5 47c0 61 -35 77 -116 77h-214c-104 0 -138 -26 -155 -125zM848 237c-31 -173 -99 -237 -293 -237h-305c-155 0 -221 48 -221 162c0 22 2 47 7 75l38 218
c34 190 111 247 300 247h305c143 0 216 -36 216 -161c0 -25 -3 -53 -9 -86z" />
    <glyph glyph-name="P" unicode="P" horiz-adv-x="800" 
d="M-5 0l122 694h473c145 0 209 -46 209 -162c0 -24 -3 -51 -8 -81c-32 -176 -114 -246 -285 -246h-309l-36 -205h-166zM221 343h277c92 0 131 51 131 144c0 45 -23 69 -93 69h-277z" />
    <glyph glyph-name="Q" unicode="Q" horiz-adv-x="929" 
d="M835 167l62 -51l-111 -132l-62 46c-17 -10 -63 -30 -147 -30h-327c-147 0 -222 49 -222 165c0 19 2 40 6 63l42 241c28 160 103 233 297 233h304c152 0 218 -38 218 -157c0 -26 -3 -55 -9 -89zM389 269l121 137s175 -148 175 -146l34 192c1 6 2 16 2 24
c0 44 -24 88 -115 88h-212c-102 0 -146 -60 -156 -120l-33 -188c-3 -16 -4 -31 -4 -43c0 -60 35 -75 118 -75h259z" />
    <glyph glyph-name="R" unicode="R" horiz-adv-x="889" 
d="M262 556l-38 -212h347c79 0 118 48 118 146c0 45 -21 66 -80 66h-347zM784 0h-166c16 86 21 125 21 133c0 50 -34 73 -117 73h-322l-36 -206h-166l122 694h527c136 0 211 -17 211 -169c0 -22 -2 -47 -7 -75c-19 -106 -76 -151 -133 -181c57 -20 93 -43 93 -98
c0 -8 -5 -48 -27 -171z" />
    <glyph glyph-name="S" unicode="S" horiz-adv-x="897" 
d="M663 694c145 0 208 -46 208 -144c0 -16 -2 -33 -5 -52h-166c1 7 3 17 3 20c0 29 -18 45 -77 45h-279c-52 0 -95 -26 -95 -94c0 -43 30 -49 70 -49h303c128 0 198 -11 198 -127c0 -23 -2 -50 -8 -82c-26 -147 -101 -211 -265 -211h-335c-147 0 -201 44 -201 136
c0 18 2 39 6 61h166c0 -37 23 -66 70 -66h278c81 0 118 34 118 107c0 33 -19 51 -95 51h-246c-159 0 -229 23 -229 135c0 21 3 46 8 74c24 140 106 196 291 196h282z" />
    <glyph glyph-name="T" unicode="T" horiz-adv-x="800" 
d="M97 694h749l-24 -138h-293l-98 -556h-166l98 556h-290z" />
    <glyph glyph-name="U" unicode="U" horiz-adv-x="896" 
d="M108 694h166l-76 -431c-3 -16 -4 -30 -4 -42c0 -62 36 -83 110 -83h229c82 0 126 28 143 126l76 430h166l-79 -447c-32 -183 -112 -247 -291 -247h-305c-149 0 -220 57 -220 178c0 21 2 44 6 69z" />
    <glyph glyph-name="V" unicode="V" horiz-adv-x="983" 
d="M69 694h192l190 -556h20l390 556h190l-494 -694h-240z" />
    <glyph glyph-name="W" unicode="W" horiz-adv-x="1391" 
d="M806 0l-84 472l-250 -472h-244l-148 694h172l119 -556h9l294 556h173l100 -556h12l310 556h172l-391 -694h-244z" />
    <glyph glyph-name="X" unicode="X" horiz-adv-x="984" 
d="M325 694l182 -253l270 253h225l-379 -337l296 -357h-244l-198 274l-294 -274h-244l422 357l-261 337h225z" />
    <glyph glyph-name="Y" unicode="Y" horiz-adv-x="882" 
d="M738 694h209l-438 -460l-41 -234h-166l41 234l-276 460h209l173 -323z" />
    <glyph glyph-name="Z" unicode="Z" horiz-adv-x="866" 
d="M97 694h780l-25 -140l-589 -416h516l-24 -138h-780l24 136l609 420h-535z" />
    <glyph glyph-name="bracketleft" unicode="[" horiz-adv-x="289" 
d="M141 761h185l-10 -59h-74l-133 -754h77l-10 -59h-189z" />
    <glyph glyph-name="backslash" unicode="\" horiz-adv-x="338" 
d="M78 728h111l78 -817h-111z" />
    <glyph glyph-name="bracketright" unicode="]" horiz-adv-x="289" 
d="M315 761l-154 -872h-188l11 59h77l132 754h-75l11 59h186z" />
    <glyph glyph-name="asciicircum" unicode="^" horiz-adv-x="406" 
d="M18 399l189 242h40l104 -242h-33l-106 155l-162 -155h-32z" />
    <glyph glyph-name="underscore" unicode="_" horiz-adv-x="389" 
d="M6 -1h388l-10 -55h-388z" />
    <glyph glyph-name="grave" unicode="`" horiz-adv-x="320" 
d="M141 758l121 -171l-44 -33l-166 130z" />
    <glyph glyph-name="a" unicode="a" horiz-adv-x="772" 
d="M236 351h-158c15 81 70 143 226 143h245c134 0 183 -58 183 -135c0 -9 -2 -26 -4 -39l-57 -320h-166l10 56c-34 -37 -55 -56 -115 -56h-222c-90 0 -145 32 -145 100c0 5 1 21 2 26l10 60c15 82 68 131 223 131h201c49 0 72 -16 84 -48c3 20 13 68 13 76
c0 35 -20 46 -83 46h-176c-53 0 -64 -5 -68 -24zM291 214c-58 0 -90 -13 -90 -74c0 -21 11 -37 71 -37h171c61 0 91 15 91 70c0 25 -11 41 -72 41h-171z" />
    <glyph glyph-name="b" unicode="b" horiz-adv-x="784" 
d="M284 694l-48 -275c5 8 51 75 156 75h148c118 0 184 -58 184 -154c0 -14 -1 -28 -4 -43l-18 -103c-20 -114 -101 -194 -249 -194h-148c-93 0 -136 64 -136 64l-7 -64h-166l122 694h166zM343 380c-71 0 -121 -42 -131 -94c-6 -31 -15 -79 -15 -95c0 -36 28 -77 99 -77h112
c82 0 120 32 130 93l14 78c1 6 2 19 2 21c0 46 -26 74 -99 74h-112z" />
    <glyph glyph-name="c" unicode="c" horiz-adv-x="724" 
d="M701 322h-166c1 5 2 17 2 21c0 26 -16 39 -62 39h-157c-60 0 -99 -36 -110 -97c-3 -17 -17 -91 -17 -103c0 -38 24 -68 74 -68h160c62 0 76 17 85 65h166c-21 -118 -72 -179 -250 -179h-236c-114 0 -169 65 -169 147c0 12 1 24 3 36l21 119c20 116 104 194 238 194h225
c137 0 198 -35 198 -126c0 -15 -2 -30 -5 -48z" />
    <glyph glyph-name="d" unicode="d" horiz-adv-x="784" 
d="M502 0l11 64s-62 -64 -154 -64h-148c-128 0 -185 60 -185 150c0 14 1 29 4 44l18 103c22 121 115 197 250 197h148c80 0 116 -38 130 -75l48 275h166l-122 -694h-166zM343 380c-71 0 -121 -42 -131 -94c-6 -31 -15 -79 -15 -95c0 -36 28 -77 99 -77h112
c82 0 120 32 130 93l14 78c1 6 2 19 2 21c0 46 -26 74 -99 74h-112z" />
    <glyph glyph-name="e" unicode="e" horiz-adv-x="698" 
d="M520 303c1 8 2 20 2 23c0 38 -19 67 -79 67h-153c-65 0 -92 -42 -100 -90h330zM662 211h-489c-5 -29 -6 -39 -6 -48c0 -32 13 -60 66 -60h192c40 0 63 20 70 59h159c-16 -87 -70 -162 -237 -162h-243c-120 0 -174 61 -174 147c0 13 1 27 4 42l22 125
c15 87 91 182 239 182h236c137 0 181 -71 181 -153c0 -16 -2 -32 -20 -132z" />
    <glyph glyph-name="f" unicode="f" horiz-adv-x="501" 
d="M31 0l67 380h-61l20 114h61l8 45c16 92 82 155 246 155h129l-20 -114h-116c-53 0 -67 -8 -74 -48l-7 -38h180l-20 -114h-180l-67 -380h-166z" />
    <glyph glyph-name="g" unicode="g" horiz-adv-x="774" 
d="M619 494h166l-91 -517c-22 -125 -109 -197 -261 -197h-239c-99 0 -166 56 -166 141c0 10 1 20 3 31h167c0 -39 17 -58 61 -58h170c51 0 89 28 97 75l19 103c-21 -34 -80 -72 -151 -72h-161c-122 0 -179 66 -179 148c0 11 1 22 3 33l22 127c21 120 120 186 248 186h151
c102 0 127 -55 130 -62zM374 380c-71 0 -121 -42 -131 -94c-6 -31 -15 -79 -15 -95c0 -36 28 -77 99 -77h112c82 0 120 32 130 93l14 78c1 6 2 19 2 21c0 46 -26 74 -99 74h-112z" />
    <glyph glyph-name="h" unicode="h" horiz-adv-x="781" 
d="M657 0h-166l45 255c3 15 4 29 4 41c0 57 -30 84 -100 84h-81c-84 0 -141 -50 -157 -138l-42 -242h-166l122 694h166l-48 -271c23 27 71 71 157 71h134c132 0 189 -56 189 -147c0 -15 -1 -31 -4 -47z" />
    <glyph glyph-name="i" unicode="i" horiz-adv-x="298" 
d="M262 494l-87 -494h-166l87 494h166zM131 694h166l-24 -138h-166z" />
    <glyph glyph-name="j" unicode="j" horiz-adv-x="341" 
d="M155 494h166l-93 -523c-29 -167 -198 -183 -291 -183l24 135c36 0 96 20 113 116zM190 694h166l-24 -138h-166z" />
    <glyph glyph-name="k" unicode="k" horiz-adv-x="647" 
d="M274 694l-66 -377h61l198 177h187l-271 -229l205 -265h-198l-139 214h-61l-38 -214h-166l122 694h166z" />
    <glyph glyph-name="l" unicode="l" horiz-adv-x="293" 
d="M292 694l-122 -694h-166l122 694h166z" />
    <glyph glyph-name="m" unicode="m" horiz-adv-x="1164" 
d="M267 494l-14 -77c46 47 88 77 172 77h97c109 0 145 -42 156 -72c38 44 75 72 199 72h59c138 0 193 -57 193 -144c0 -14 -1 -29 -4 -45l-54 -305h-166l48 272c3 16 5 30 5 43c0 41 -21 65 -101 65h-40c-83 0 -132 -45 -145 -115l-47 -265h-166l48 267c2 12 3 23 3 33
c0 49 -25 80 -104 80h-49c-80 0 -118 -45 -130 -112l-47 -268h-166l87 494h166z" />
    <glyph glyph-name="n" unicode="n" horiz-adv-x="773" 
d="M261 494l-13 -70c22 36 73 70 156 70h134c126 0 188 -57 188 -155c0 -15 -1 -31 -4 -48l-52 -291h-166l46 258c3 15 4 29 4 41c0 57 -30 81 -100 81h-82c-84 0 -140 -47 -155 -135l-43 -245h-166l87 494h166z" />
    <glyph glyph-name="o" unicode="o" horiz-adv-x="770" 
d="M312 496h231c127 0 186 -67 186 -158c0 -13 -2 -26 -4 -40l-19 -105c-20 -113 -109 -193 -250 -193h-232c-122 0 -186 62 -186 155c0 10 2 26 4 40l18 103c19 109 106 198 252 198zM557 285c1 8 2 15 2 22c0 46 -29 75 -92 75h-113c-77 0 -119 -32 -130 -96l-15 -81
c-1 -6 -2 -16 -2 -23c0 -47 32 -68 99 -68h113c73 0 112 26 124 92z" />
    <glyph glyph-name="p" unicode="p" horiz-adv-x="764" 
d="M276 494l-10 -59c32 26 77 59 153 59h150c121 0 186 -50 186 -146c0 -14 -1 -30 -4 -46l-19 -108c-19 -108 -102 -194 -250 -194h-149c-73 0 -119 39 -132 68l-47 -268h-166l122 694h166zM374 380c-71 0 -121 -42 -131 -94c-6 -31 -15 -79 -15 -95c0 -36 28 -77 99 -77
h112c82 0 120 32 130 93l14 78c1 6 2 19 2 21c0 46 -26 74 -99 74h-112z" />
    <glyph glyph-name="q" unicode="q" horiz-adv-x="773" 
d="M495 -200l47 268c-23 -29 -83 -68 -156 -68h-149c-129 0 -186 65 -186 153c0 7 2 27 4 41l19 108c23 126 111 192 250 192h150c76 0 109 -33 133 -59l10 59h166l-122 -694h-166zM368 380c-71 0 -121 -42 -131 -94c-6 -31 -15 -79 -15 -95c0 -36 28 -77 99 -77h112
c82 0 120 32 130 93l14 78c1 6 2 19 2 21c0 46 -26 74 -99 74h-112z" />
    <glyph glyph-name="r" unicode="r" horiz-adv-x="683" 
d="M251 494l-13 -72c49 51 86 72 155 72h83c145 0 186 -64 186 -144c0 -18 -2 -37 -6 -57h-166c0 44 -6 87 -85 87h-61c-67 0 -123 -52 -135 -119l-45 -261h-166l87 494h166z" />
    <glyph glyph-name="s" unicode="s" horiz-adv-x="698" 
d="M184 0c-115 0 -164 37 -164 115c0 13 1 28 4 43h139c0 -41 10 -55 55 -55h204c51 0 75 19 75 48c0 17 -10 43 -62 43h-237c-94 0 -142 35 -142 105c0 10 1 21 8 62c14 77 67 135 218 135h222c129 0 180 -30 180 -109c0 -14 -2 -30 -5 -47h-149c0 46 -20 53 -76 53h-188
c-47 0 -70 -20 -70 -50c0 -13 2 -35 51 -35h225c131 0 182 -34 182 -98c0 -9 -1 -18 -8 -60c-18 -99 -96 -150 -226 -150h-236z" />
    <glyph glyph-name="t" unicode="t" horiz-adv-x="667" 
d="M134 589h166l-17 -95h310l-20 -114h-310l-31 -174c-2 -13 -3 -22 -3 -30c0 -43 25 -62 66 -62h69c48 0 72 38 81 88h166c-19 -104 -64 -202 -276 -202h-105c-112 0 -171 54 -171 143c0 13 1 26 4 41l34 196h-60l20 114h60z" />
    <glyph glyph-name="u" unicode="u" horiz-adv-x="796" 
d="M97 494h166l-44 -245c-2 -12 -3 -23 -3 -33c0 -70 39 -102 123 -102h65c84 0 151 48 166 135l44 245h166l-88 -494h-166l12 63c-31 -36 -84 -63 -155 -63h-159c-110 0 -183 48 -183 157c0 16 2 33 5 52z" />
    <glyph glyph-name="v" unicode="v" horiz-adv-x="676" 
d="M58 494h162l103 -356l230 356h161l-321 -494h-189z" />
    <glyph glyph-name="w" unicode="w" horiz-adv-x="1107" 
d="M647 0l-78 309l-189 -309h-188l-128 494h161l86 -356l211 356h159l86 -356l211 356h162l-304 -494h-189z" />
    <glyph glyph-name="x" unicode="x" horiz-adv-x="693" 
d="M700 494l-241 -236l173 -258h-185l-110 175l-172 -175h-185l265 258l-157 236h187l94 -150l144 150h187z" />
    <glyph glyph-name="y" unicode="y" horiz-adv-x="684" 
d="M95 494h155l75 -356h19l228 356h160l-320 -493c-118 -183 -150 -212 -305 -212h-23l20 114h23c56 0 81 11 135 97h-44z" />
    <glyph glyph-name="z" unicode="z" horiz-adv-x="662" 
d="M88 494h573l-23 -128l-418 -252h374l-21 -114h-578l24 133l416 247h-368z" />
    <glyph glyph-name="braceleft" unicode="{" horiz-adv-x="304" 
d="M370 693c-69 0 -98 -22 -111 -93l-34 -194c-12 -66 -77 -98 -77 -98c29 -25 43 -61 43 -84c0 -12 -25 -150 -35 -208c-2 -11 -3 -21 -3 -30c0 -44 26 -59 81 -59l-10 -59c-95 0 -181 32 -181 121c0 11 1 21 2 27c10 60 35 192 35 207c0 32 -19 60 -48 85
c30 19 74 53 82 98l30 172c24 136 125 174 236 174z" />
    <glyph glyph-name="bar" unicode="|" horiz-adv-x="200" 
d="M136 739h83l-154 -872h-83z" />
    <glyph glyph-name="braceright" unicode="}" horiz-adv-x="304" 
d="M100 693l10 59c98 0 178 -30 178 -132c0 -13 -1 -27 -4 -42c-10 -60 -31 -173 -31 -186c0 -30 17 -59 49 -84c-42 -26 -77 -65 -83 -98l-34 -194c-19 -110 -128 -148 -231 -148l10 59c66 0 98 21 110 89l34 194c8 43 56 83 78 98c-27 16 -45 50 -45 77
c0 72 24 144 36 215c2 13 4 24 4 34c0 44 -25 59 -81 59z" />
    <glyph glyph-name="asciitilde" unicode="~" horiz-adv-x="591" 
d="M140 338h-93c0 4 24 131 188 131c81 0 85 -52 135 -52c70 0 80 52 80 52h89s-30 -131 -182 -131c-80 0 -73 52 -138 52c-62 0 -79 -52 -79 -52z" />
    <glyph glyph-name="quotesinglebase" horiz-adv-x="333" 
d="M75 -27l29 166h166l-29 -166c-28 -161 -82 -179 -226 -179l17 92c52 0 75 13 83 56l5 31h-45z" />
    <glyph glyph-name="quotedblbase" unicode="&#x201e;" horiz-adv-x="564" 
d="M75 -27l29 166h166l-29 -166c-28 -161 -82 -179 -226 -179l17 92c52 0 75 13 83 56l5 31h-45zM328 -27l29 166h166l-29 -166c-28 -161 -82 -179 -226 -179l17 92c52 0 75 13 83 56l5 31h-45z" />
    <glyph glyph-name="ellipsis" unicode="&#x2026;" horiz-adv-x="924" 
d="M59 0l29 166h166l-29 -166h-166zM354 0l29 166h166l-29 -166h-166zM649 0l29 166h166l-29 -166h-166z" />
    <glyph glyph-name="FLW135" horiz-adv-x="792" 
d="M704 138l-24 -138h-698l21 120c77 29 116 66 142 129h-109l22 126h59c-12 19 -16 57 -16 75c0 183 111 252 229 252h305c92 0 141 -92 141 -190c0 -13 -1 -30 -2 -38h-166c1 4 2 16 2 20c0 43 -29 70 -88 70h-150c-74 0 -109 -41 -109 -118c0 -16 6 -44 26 -71h303
l-22 -126h-259c-7 -37 -42 -82 -105 -111h498z" />
    <glyph glyph-name="FLW137" horiz-adv-x="1738" 
d="M439 536c2 13 4 24 4 33c0 34 -18 43 -66 43h-114c-64 0 -81 -17 -91 -74l-16 -88c-2 -10 -3 -19 -3 -27c0 -32 17 -43 69 -43h114c61 0 78 11 88 68zM520 429c-20 -105 -63 -141 -175 -141h-162c-96 0 -136 18 -136 89c0 15 2 32 5 52l23 127c20 112 59 148 180 148h162
c93 0 131 -25 131 -96c0 -15 -2 -32 -5 -52zM824 734l-339 -761h-101l339 761h101zM1048 248c2 13 4 24 4 33c0 34 -18 43 -66 43h-114c-64 0 -81 -17 -91 -74l-16 -88c-2 -10 -3 -19 -3 -27c0 -32 17 -43 69 -43h114c61 0 78 11 88 68zM1129 141
c-20 -105 -63 -141 -175 -141h-162c-96 0 -136 18 -136 89c0 15 2 32 5 52l23 127c20 112 59 148 180 148h162c93 0 131 -25 131 -96c0 -15 -2 -32 -5 -52zM1596 248c2 13 4 24 4 33c0 34 -18 43 -66 43h-114c-64 0 -81 -17 -91 -74l-16 -88c-2 -10 -3 -19 -3 -27
c0 -32 17 -43 69 -43h114c61 0 78 11 88 68zM1677 141c-20 -105 -63 -141 -175 -141h-162c-96 0 -136 18 -136 89c0 15 2 32 5 52l23 127c20 112 59 148 180 148h162c93 0 131 -25 131 -96c0 -15 -2 -32 -5 -52z" />
    <glyph glyph-name="quilsinglleft" horiz-adv-x="391" 
d="M15 252l9 50l309 222l47 -73l-243 -172l183 -170l-71 -75z" />
    <glyph glyph-name="quoteleft" unicode="&#x2018;" horiz-adv-x="289" 
d="M202 566l-29 -166h-166l29 166c28 161 82 179 226 179l-17 -92c-52 0 -75 -13 -83 -56l-5 -31h45z" />
    <glyph glyph-name="quoteright" unicode="&#x2019;" horiz-adv-x="316" 
d="M76 548l29 166h166l-29 -166c-28 -161 -82 -179 -226 -179l17 92c52 0 75 13 83 56l5 31h-45z" />
    <glyph glyph-name="quotedblleft" unicode="&#x201c;" horiz-adv-x="551" 
d="M485 565l-29 -166h-166l29 166c28 161 82 179 226 179l-17 -92c-52 0 -75 -13 -83 -56l-5 -31h45zM214 565l-29 -166h-166l29 166c28 161 82 179 226 179l-17 -92c-52 0 -75 -13 -83 -56l-5 -31h45z" />
    <glyph glyph-name="quotedblright" unicode="&#x201d;" horiz-adv-x="609" 
d="M108 548l29 166h166l-29 -166c-28 -161 -82 -179 -226 -179l17 92c52 0 75 13 83 56l5 31h-45zM379 548l29 166h166l-29 -166c-28 -161 -82 -179 -226 -179l17 92c52 0 75 13 83 56l5 31h-45z" />
    <glyph glyph-name="bullet" unicode="&#x2022;" horiz-adv-x="478" 
d="M268 442c94 0 137 -61 137 -130c0 -89 -75 -192 -193 -192c-99 0 -145 61 -145 130c0 90 79 192 201 192z" />
    <glyph glyph-name="endash" unicode="&#x2013;" horiz-adv-x="733" 
d="M79 392h595l-24 -138h-595z" />
    <glyph glyph-name="emdash" unicode="&#x2014;" horiz-adv-x="1107" 
d="M80 393h972l-24 -138h-972z" />
    <glyph glyph-name="trademark" unicode="&#x2122;" horiz-adv-x="1167" 
d="M76 858h441l-14 -80h-181l-58 -331h-80l58 331h-180zM554 858h102l131 -301l233 301h103l-72 -411h-80l57 325l-249 -325h-34l-127 320l-56 -320h-80z" />
    <glyph glyph-name="quilsinglright" horiz-adv-x="370" 
d="M337 252l-302 -212l-48 72l239 167l-178 168l73 73l225 -218z" />
    <glyph glyph-name="afii10062" unicode="&#x40e;" horiz-adv-x="879" 
d="M700 694h197l-415 -522c-122 -154 -163 -172 -282 -172h-65l23 131h33c72 0 104 20 104 47c0 7 -1 15 -7 27l-235 489h196l163 -391zM759 896c-17 -97 -48 -151 -266 -151c-169 0 -217 29 -217 99c0 13 1 27 4 43l2 9h135c-2 -12 -3 -22 -3 -30c0 -36 22 -40 94 -40
c84 0 105 6 116 70h135z" />
    <glyph glyph-name="afii10110" unicode="&#x45e;" horiz-adv-x="684" 
d="M77 494h155l76 -356h19l227 356h160l-319 -493c-119 -183 -151 -212 -306 -212h-23l20 114h23c56 0 81 11 135 97h-44zM356 695c0 -57 29 -70 68 -70c36 0 81 6 92 70h109c-20 -111 -79 -151 -216 -151c-117 0 -167 29 -167 106c0 14 2 28 5 45h109z" />
    <glyph glyph-name="afii10057" unicode="&#x408;" horiz-adv-x="564" 
d="M75 -27l29 166h166l-29 -166c-28 -161 -82 -179 -226 -179l17 92c52 0 75 13 83 56l5 31h-45zM328 -27l29 166h166l-29 -166c-28 -161 -82 -179 -226 -179l17 92c52 0 75 13 83 56l5 31h-45z" />
    <glyph glyph-name="afii10050" unicode="&#x490;" horiz-adv-x="924" 
d="M83 694h202l188 -313l306 313h189l-375 -389h117l-15 -80h-167l-8 -47h167l-14 -80h-167l-17 -98h-166l17 98h-166l14 80h166l8 47h-166l15 80h114z" />
    <glyph glyph-name="brokenbar" unicode="&#xa6;" horiz-adv-x="200" 
d="M42 195h83l-58 -328h-83zM134 715h83l-58 -328h-83z" />
    <glyph glyph-name="section" unicode="&#xa7;" horiz-adv-x="751" 
d="M506 248c53 0 75 21 81 54c2 11 6 30 6 33c0 15 -13 43 -43 43h-319c-40 0 -58 -25 -66 -62c-1 -4 -5 -28 -5 -32c0 -18 8 -36 37 -36h309zM724 539h-138c0 36 -19 43 -95 43h-164c-47 0 -85 -8 -85 -66c0 -27 18 -36 67 -36h301c74 0 123 -41 123 -106
c0 -8 -1 -20 -2 -25l-13 -71c-10 -59 -46 -106 -96 -115c0 0 24 -15 24 -57c0 -7 -4 -36 -7 -53c-12 -70 -81 -127 -193 -127h-293c-83 0 -130 51 -130 124c0 11 1 21 3 33h138c0 -39 14 -43 79 -43h177c47 0 88 7 88 63c0 25 -21 43 -68 43h-283c-100 0 -140 39 -140 100
c0 10 1 21 2 28l12 67c13 73 66 109 97 118c-18 24 -25 34 -25 58c0 5 6 40 8 51c12 69 74 128 171 128h313c95 0 133 -47 133 -116c0 -13 -1 -27 -4 -41z" />
    <glyph glyph-name="afii10023" unicode="&#x401;" horiz-adv-x="834" 
d="M-9 0l122 694h709l-23 -131h-543l-27 -152h526l-21 -121h-526l-28 -159h543l-23 -131h-709zM329 874h166l-24 -138h-166zM558 874h166l-24 -138h-166z" />
    <glyph glyph-name="copyright" unicode="&#xa9;" horiz-adv-x="712" 
d="M492 430h58c-15 -81 -49 -112 -146 -112h-154c-76 0 -113 18 -113 80c0 15 7 56 23 146c17 94 48 128 152 128h153c72 0 111 -19 111 -78c0 -12 -1 -22 -3 -34h-58c2 10 3 18 3 25c0 24 -14 29 -63 29h-155c-66 0 -70 -3 -82 -68c-22 -123 -23 -134 -23 -139
c0 -29 20 -31 65 -31h152c63 0 71 4 80 54zM622 586c3 18 6 39 6 52c0 56 -27 70 -112 70h-237c-97 0 -138 -24 -155 -123l-31 -173c-3 -18 -5 -33 -5 -46c0 -59 34 -74 117 -74h237c109 0 131 18 149 120zM671 412c-28 -162 -97 -200 -243 -200h-237
c-127 0 -184 39 -184 135c0 10 4 52 6 65l30 169c26 144 92 207 250 207h237c115 0 178 -31 178 -144c0 -18 -2 -36 -7 -63z" />
    <glyph glyph-name="afii10053" unicode="&#x404;" horiz-adv-x="910" 
d="M640 412l-22 -121h-413c-7 -45 -9 -61 -9 -75c0 -64 38 -78 116 -78h213c99 0 138 19 152 102h166c-33 -185 -88 -240 -293 -240h-309c-157 0 -219 39 -219 155c0 26 3 56 9 90l36 204c36 200 110 253 314 253h273c142 0 235 -32 235 -168c0 -21 -2 -44 -7 -70h-165
c1 6 2 18 2 26c0 51 -34 74 -117 74h-213c-111 0 -138 -12 -157 -121l-5 -31h413z" />
    <glyph glyph-name="guillemotleft" unicode="&#xab;" horiz-adv-x="604" 
d="M15 252l9 50l309 222l47 -73l-243 -172l183 -170l-71 -75zM255 252l9 50l309 222l47 -73l-243 -172l183 -170l-71 -75z" />
    <glyph glyph-name="Ynotequal" horiz-adv-x="458" 
d="M42 661h388l-10 -55h-388z" />
    <glyph glyph-name="registered" unicode="&#xae;" horiz-adv-x="712" 
d="M622 586c4 24 6 43 6 52c0 57 -30 70 -112 70h-237c-97 0 -138 -24 -155 -123l-31 -173c-3 -18 -5 -37 -5 -46c0 -59 34 -74 117 -74h237c109 0 131 19 149 120zM671 412c-28 -162 -97 -200 -243 -200h-237c-127 0 -184 39 -184 138c0 18 2 39 6 62l30 169
c26 144 92 207 250 207h237c112 0 178 -31 178 -139c0 -15 -2 -42 -7 -68zM248 614l-18 -100h204c42 0 66 14 66 71c0 17 -5 29 -45 29h-207zM220 456l-22 -124h-58l60 340h253c94 0 107 -39 107 -73c0 -28 -16 -99 -45 -114c14 -12 16 -35 16 -45c0 -15 -3 -37 -17 -108
h-58c11 59 15 77 15 87c0 16 -4 37 -37 37h-214z" />
    <glyph glyph-name="afii10056" unicode="&#x407;" horiz-adv-x="338" 
d="M297 694l-122 -694h-166l122 694h166zM50 874h166l-24 -138h-166zM279 874h166l-24 -138h-166z" />
    <glyph glyph-name="degree" unicode="&#xb0;" horiz-adv-x="284" 
d="M46 608c7 39 29 65 84 65h60c54 0 61 -28 61 -44c0 -7 -6 -45 -8 -56c-6 -35 -31 -64 -81 -64h-60c-53 0 -64 27 -64 49c0 8 6 39 8 50zM109 539h54c28 0 44 10 49 35c2 10 7 37 7 41c0 16 -11 28 -38 28h-54c-27 0 -45 -11 -50 -36c-2 -11 -7 -36 -7 -40
c0 -18 11 -28 39 -28z" />
    <glyph glyph-name="plusminus" unicode="&#xb1;" horiz-adv-x="556" 
d="M39 202h408l-24 -138h-408zM82 524h144l25 145h135l-25 -145h157l-24 -138h-157l-26 -144h-135l26 144h-144z" />
    <glyph glyph-name="afii10055" unicode="&#x406;" horiz-adv-x="328" 
d="M315 694l-122 -694h-166l122 694h166z" />
    <glyph glyph-name="afii10103" unicode="&#x456;" horiz-adv-x="298" 
d="M262 494l-87 -494h-166l87 494h166zM131 694h166l-24 -138h-166z" />
    <glyph glyph-name="FLW180" horiz-adv-x="282" 
d="M208 745l47 -67l-209 -125l-38 39z" />
    <glyph glyph-name="paragraph" unicode="&#xb6;" horiz-adv-x="858" 
d="M500 -56h-166l46 262h-116c-132 0 -205 81 -205 194c0 164 129 294 291 294h282zM744 -56h-166l132 750h166z" />
    <glyph glyph-name="periodcentered" unicode="&#xb7;" horiz-adv-x="329" 
d="M59 267l29 166h166l-29 -166h-166z" />
    <glyph glyph-name="periodcentered" unicode="&#x2219;" horiz-adv-x="329" 
d="M59 267l29 166h166l-29 -166h-166z" />
    <glyph glyph-name="afii10071" unicode="&#x451;" horiz-adv-x="698" 
d="M520 303c1 8 2 20 2 23c0 38 -19 67 -79 67h-153c-65 0 -92 -42 -100 -90h330zM662 211h-489c-5 -29 -6 -39 -6 -48c0 -32 13 -60 66 -60h192c40 0 63 20 70 59h159c-16 -87 -70 -162 -237 -162h-243c-120 0 -174 61 -174 147c0 13 1 27 4 42l22 125
c15 87 91 182 239 182h236c137 0 181 -71 181 -153c0 -16 -2 -32 -20 -132zM179 695h166l-24 -138h-166zM408 695h166l-24 -138h-166z" />
    <glyph glyph-name="afii61352" unicode="&#x2116;" horiz-adv-x="1423" 
d="M5 0l122 694h248l394 -474l83 474h166l-122 -694h-199l-435 519l-91 -519h-166zM1183 570h99c58 0 93 -29 93 -74c0 -11 -7 -52 -11 -77c-9 -55 -55 -99 -126 -99h-99c-70 0 -92 43 -92 79c0 14 8 59 11 74c11 55 52 97 125 97zM1252 511h-56c-39 0 -60 -15 -65 -47
c-2 -13 -8 -40 -8 -49c0 -21 11 -36 50 -36h56c38 0 56 15 62 47c2 11 8 44 8 50c0 17 -10 35 -47 35zM1005 259h343l-13 -75h-343z" />
    <glyph glyph-name="afii10101" unicode="&#x454;" horiz-adv-x="724" 
d="M693 325h-158c2 12 4 27 4 31c0 20 -12 37 -69 37h-150c-58 0 -99 -29 -109 -91h272l-17 -92h-272c-2 -11 -5 -33 -5 -40c0 -36 24 -67 74 -67h160c62 0 83 17 90 53l4 23h158l-3 -15c-18 -104 -68 -164 -246 -164h-236c-114 0 -169 65 -169 147c0 12 1 24 3 36l21 119
c20 116 105 194 239 194h216c138 0 198 -33 198 -118c0 -13 -1 -28 -5 -53z" />
    <glyph glyph-name="guillemotright" unicode="&#xbb;" horiz-adv-x="613" 
d="M337 252l-302 -212l-48 72l239 167l-178 168l73 73l225 -218zM586 252l-302 -212l-48 72l238 167l-177 168l73 73l225 -218z" />
    <glyph glyph-name="afii10105" unicode="&#x458;" horiz-adv-x="520" 
d="M64 392h408l-24 -138h-408zM120 29l29 166h166l-29 -166h-166zM195 450l29 166h166l-29 -166h-166z" />
    <glyph glyph-name="afii10054" unicode="&#x405;" horiz-adv-x="564" 
d="M214 526l84 -102l120 102l81 -97l-120 -102l84 -102l-113 -95l-84 101l-124 -101l-79 95l120 102l-84 102z" />
    <glyph glyph-name="afii10102" unicode="&#x455;" horiz-adv-x="924" 
d="M59 0l29 166h166l-29 -166h-166zM354 0l29 166h166l-29 -166h-166zM649 0l29 166h166l-29 -166h-166z" />
    <glyph glyph-name="afii10104" unicode="&#x457;" horiz-adv-x="338" 
d="M276 494l-87 -494h-166l87 494h166zM37 694h166l-24 -138h-166zM266 694h166l-24 -138h-166z" />
    <glyph glyph-name="afii10017" unicode="&#x410;" horiz-adv-x="983" 
d="M141 0h-194l490 694h246l243 -694h-195l-58 175h-411zM352 306h277l-87 258h-8z" />
    <glyph glyph-name="afii10018" unicode="&#x411;" horiz-adv-x="844" 
d="M126 694h651l-23 -131h-485l-22 -128h303c141 0 219 -30 219 -150c0 -85 -31 -187 -88 -233c-52 -42 -120 -52 -204 -52h-473zM222 297l-28 -159h287c29 0 68 2 89 19c22 17 30 77 30 93c0 32 -18 47 -85 47h-293z" />
    <glyph glyph-name="afii10019" unicode="&#x412;" horiz-adv-x="887" 
d="M266 563l-26 -150h339c45 0 83 40 83 99c0 25 -12 51 -58 51h-338zM1 0l122 694h500c137 0 213 -36 213 -134c0 -57 -14 -169 -118 -194c54 -19 90 -42 90 -112c0 -14 -2 -31 -5 -50c-26 -149 -111 -204 -268 -204h-534zM218 290l-28 -159h333c93 0 119 29 119 112
c0 32 -18 47 -85 47h-339z" />
    <glyph glyph-name="afii10020" unicode="&#x413;" horiz-adv-x="703" 
d="M121 694h595l-24 -138h-429l-98 -556h-166z" />
    <glyph glyph-name="afii10021" unicode="&#x414;" horiz-adv-x="963" 
d="M57 138c71 59 105 125 122 224l59 332h694l-98 -556h77l-54 -304h-151l29 166h-598l-29 -166h-152l54 304h47zM668 138l73 418h-368l-40 -228c-13 -76 -40 -133 -90 -190h425z" />
    <glyph glyph-name="afii10022" unicode="&#x415;" horiz-adv-x="834" 
d="M7 0l122 694h709l-23 -131h-543l-27 -152h526l-21 -121h-526l-28 -159h543l-23 -131h-709z" />
    <glyph glyph-name="afii10024" unicode="&#x416;" horiz-adv-x="1459" 
d="M584 0l52 297h-86l-353 -297h-222l447 369l-307 325h235l228 -259h83l45 259h166l-45 -259h83l318 259h235l-421 -325l317 -369h-222l-249 297h-86l-52 -297h-166z" />
    <glyph glyph-name="afii10025" unicode="&#x417;" horiz-adv-x="897" 
d="M215 0c-147 0 -201 42 -201 135c0 19 2 39 6 62h166c0 -38 23 -66 70 -66h278c81 0 123 29 123 101c0 36 -21 57 -100 57h-305l21 121h324c46 0 96 26 96 99c0 36 -22 54 -69 54h-279c-70 0 -86 -23 -96 -65h-166c23 134 103 196 271 196h282c160 0 228 -41 228 -143
c0 -107 -51 -180 -124 -200c51 -20 84 -51 84 -108c0 -10 -1 -20 -3 -32c-26 -148 -107 -211 -271 -211h-335z" />
    <glyph glyph-name="afii10026" unicode="&#x418;" horiz-adv-x="1020" 
d="M896 0h-166l98 556h-23l-515 -556h-285l122 694h166l-98 -556h23l521 556h279z" />
    <glyph glyph-name="afii10027" unicode="&#x419;" horiz-adv-x="1020" 
d="M878 0h-166l98 556h-23l-515 -556h-285l122 694h166l-98 -556h23l521 556h279zM802 896c-17 -97 -48 -151 -266 -151c-169 0 -217 29 -217 99c0 13 1 27 4 43l2 9h135c-2 -12 -3 -22 -3 -30c0 -36 22 -40 94 -40c84 0 105 6 116 70h135z" />
    <glyph glyph-name="afii10028" unicode="&#x41a;" horiz-adv-x="909" 
d="M289 694l-45 -259h98l348 259h249l-466 -325l360 -369h-244l-269 297h-101l-52 -297h-166l122 694h166z" />
    <glyph glyph-name="afii10029" unicode="&#x41b;" horiz-adv-x="891" 
d="M902 694l-122 -694h-166l98 556h-390l-54 -304c-31 -178 -117 -252 -241 -252h-70l24 138c85 0 107 32 125 133l74 423h722z" />
    <glyph glyph-name="afii10030" unicode="&#x41c;" horiz-adv-x="1217" 
d="M1220 694l-122 -694h-166l98 556h-22l-336 -556h-236l-140 556h-22l-106 -556h-158l122 694h309l132 -556h10l328 556h309z" />
    <glyph glyph-name="afii10031" unicode="&#x41d;" horiz-adv-x="864" 
d="M280 694l-47 -266h429l47 266h166l-122 -694h-166l51 290h-429l-51 -290h-166l122 694h166z" />
    <glyph glyph-name="afii10032" unicode="&#x41e;" horiz-adv-x="916" 
d="M205 254c-3 -17 -5 -31 -5 -44c0 -56 32 -72 114 -72h220c106 0 134 23 151 117l33 185c3 18 5 34 5 47c0 61 -35 77 -116 77h-214c-104 0 -138 -26 -155 -125zM848 237c-31 -173 -99 -237 -293 -237h-305c-155 0 -221 48 -221 162c0 22 2 47 7 75l38 218
c34 190 111 247 300 247h305c143 0 216 -36 216 -161c0 -25 -3 -53 -9 -86z" />
    <glyph glyph-name="afii10033" unicode="&#x41f;" horiz-adv-x="864" 
d="M-8 0l122 694h761l-122 -694h-166l98 556h-429l-98 -556h-166z" />
    <glyph glyph-name="afii10034" unicode="&#x420;" horiz-adv-x="800" 
d="M-5 0l122 694h473c145 0 209 -46 209 -162c0 -24 -3 -51 -8 -81c-32 -176 -114 -246 -285 -246h-309l-36 -205h-166zM221 343h277c92 0 131 51 131 144c0 45 -23 69 -93 69h-277z" />
    <glyph glyph-name="afii10035" unicode="&#x421;" horiz-adv-x="910" 
d="M676 240h167c-33 -185 -88 -240 -293 -240h-309c-157 0 -219 39 -219 155c0 26 3 56 9 90l35 197c36 203 111 260 315 260h276c141 0 231 -35 231 -169c0 -22 -2 -46 -7 -73h-166c1 5 3 18 3 26c0 55 -33 78 -117 78h-213c-111 0 -138 -19 -157 -128l-30 -172
c-3 -18 -5 -34 -5 -48c0 -64 38 -78 116 -78h213c99 0 137 18 151 102z" />
    <glyph glyph-name="afii10036" unicode="&#x422;" horiz-adv-x="800" 
d="M97 694h749l-24 -138h-293l-98 -556h-166l98 556h-290z" />
    <glyph glyph-name="afii10037" unicode="&#x423;" horiz-adv-x="879" 
d="M718 694h197l-415 -522c-122 -154 -163 -172 -282 -172h-65l23 131h33c72 0 104 19 104 49c0 3 -1 13 -7 25l-235 489h196l163 -391z" />
    <glyph glyph-name="afii10038" unicode="&#x424;" horiz-adv-x="1210" 
d="M716 502l-53 -302h171c106 0 133 24 150 118l10 60c3 19 5 34 5 48c0 61 -34 76 -115 76h-168zM584 695h166l-9 -55h213c144 0 218 -35 218 -160c0 -25 -3 -53 -9 -85l-16 -94c-31 -173 -101 -239 -295 -239h-213l-11 -62h-166l11 62h-215c-158 0 -218 43 -218 152
c0 25 3 53 9 85l16 95c33 195 123 246 295 246h215zM550 502h-167c-99 0 -137 -23 -155 -124l-10 -61c-3 -19 -5 -35 -5 -49c0 -54 29 -68 114 -68h170z" />
    <glyph glyph-name="afii10039" unicode="&#x425;" horiz-adv-x="984" 
d="M325 694l182 -253l270 253h225l-379 -337l296 -357h-244l-198 274l-294 -274h-244l422 357l-261 337h225z" />
    <glyph glyph-name="afii10040" unicode="&#x426;" horiz-adv-x="941" 
d="M197 138h429l98 556h166l-98 -556h78l-54 -305h-152l30 167h-687l122 694h166z" />
    <glyph glyph-name="afii10041" unicode="&#x427;" horiz-adv-x="830" 
d="M274 694c-17 -88 -32 -188 -32 -204c0 -62 34 -82 108 -82h117c84 0 126 14 165 60l40 226h166l-122 -694h-166l56 318c-51 -28 -103 -48 -192 -48h-126c-148 0 -218 55 -218 174c0 31 9 94 38 250h166z" />
    <glyph glyph-name="afii10042" unicode="&#x428;" horiz-adv-x="1295" 
d="M1157 0h-1144l122 694h166l-98 -556h323l98 556h166l-98 -556h323l98 556h166z" />
    <glyph glyph-name="afii10043" unicode="&#x429;" horiz-adv-x="1326" 
d="M1098 0h-1071l123 694h166l-98 -556h323l98 556h166l-98 -556h323l98 556h166l-98 -556h77l-54 -304h-150z" />
    <glyph glyph-name="afii10044" unicode="&#x42a;" horiz-adv-x="1016" 
d="M469 694l-45 -259h303c141 0 219 -30 219 -150c0 -85 -31 -187 -88 -233c-52 -42 -120 -52 -204 -52h-473l98 556h-223l24 138h389zM399 297l-28 -159h287c29 0 68 2 89 19c22 17 30 77 30 93c0 32 -18 47 -85 47h-293z" />
    <glyph glyph-name="afii10045" unicode="&#x42b;" horiz-adv-x="1189" 
d="M128 694h166l-45 -259h303c141 0 219 -30 219 -150c0 -85 -31 -187 -88 -233c-52 -42 -120 -52 -204 -52h-473zM224 297l-28 -159h287c29 0 68 2 89 19c22 17 30 77 30 93c0 32 -18 47 -85 47h-293zM1178 694l-122 -694h-166l122 694h166z" />
    <glyph glyph-name="afii10046" unicode="&#x42c;" horiz-adv-x="816" 
d="M117 694h166l-45 -259h303c141 0 219 -30 219 -150c0 -85 -31 -187 -88 -233c-52 -42 -120 -52 -204 -52h-473zM213 297l-28 -159h287c29 0 68 2 89 19c22 17 30 77 30 93c0 32 -18 47 -85 47h-293z" />
    <glyph glyph-name="afii10047" unicode="&#x42d;" horiz-adv-x="910" 
d="M295 413h413l5 30c4 23 6 42 6 57c0 57 -31 64 -119 64h-213c-96 0 -139 -30 -151 -100h-166c34 195 149 238 313 238h274c166 0 233 -34 233 -155c0 -28 -3 -60 -10 -98l-36 -203c-32 -186 -104 -246 -296 -246h-309c-162 0 -219 35 -219 142c0 28 4 61 11 99h166
c-2 -10 -4 -25 -4 -35c0 -55 36 -68 119 -68h213c95 0 138 21 157 127l5 27h-413z" />
    <glyph glyph-name="afii10048" unicode="&#x42e;" horiz-adv-x="1267" 
d="M545 254c-3 -17 -5 -31 -5 -44c0 -56 32 -72 114 -72h220c106 0 134 23 151 117l33 185c3 18 5 34 5 47c0 61 -35 77 -116 77h-214c-104 0 -138 -26 -155 -125zM218 290l-51 -290h-166l122 694h166l-46 -266h167l5 28c33 190 110 246 299 246h305c144 0 216 -35 216 -161
c0 -25 -2 -53 -8 -85l-39 -219c-31 -173 -99 -237 -293 -237h-305c-155 0 -221 48 -221 162c0 22 2 47 7 75l9 53h-167z" />
    <glyph glyph-name="afii10049" unicode="&#x42f;" horiz-adv-x="889" 
d="M718 563h-347c-80 0 -117 -51 -117 -140c0 -50 27 -72 85 -72h342zM907 694l-122 -694h-166l39 220h-276l-205 -220h-216l245 242c-65 16 -120 82 -120 169c0 7 2 26 4 39c35 197 146 244 290 244h527z" />
    <glyph glyph-name="afii10065" unicode="&#x430;" horiz-adv-x="772" 
d="M236 351h-158c15 81 70 143 226 143h245c134 0 183 -58 183 -135c0 -9 -2 -26 -4 -39l-57 -320h-166l10 56c-34 -37 -55 -56 -115 -56h-222c-90 0 -145 32 -145 100c0 5 1 21 2 26l10 60c15 82 68 131 223 131h201c49 0 72 -16 84 -48c3 20 13 68 13 76
c0 35 -20 46 -83 46h-176c-53 0 -64 -5 -68 -24zM291 214c-58 0 -90 -13 -90 -74c0 -21 11 -37 71 -37h171c61 0 91 15 91 70c0 25 -11 41 -72 41h-171z" />
    <glyph glyph-name="afii10066" unicode="&#x431;" horiz-adv-x="784" 
d="M609 694h129c-14 -82 -68 -157 -235 -157h-171c-58 0 -97 -32 -108 -94l-11 -64c37 45 80 86 173 86h148c118 0 185 -57 185 -152c0 -14 -6 -53 -17 -120c-18 -109 -108 -193 -249 -193h-240c-123 0 -187 62 -187 154c0 13 2 25 4 39l45 255c20 116 104 192 238 192h227
c38 0 64 22 69 54zM340 362c-71 0 -120 -47 -132 -101c-3 -13 -11 -60 -11 -68c0 -41 28 -79 99 -79h112c82 0 119 32 130 93c10 55 13 75 13 82c0 47 -26 73 -99 73h-112z" />
    <glyph glyph-name="afii10067" unicode="&#x432;" horiz-adv-x="708" 
d="M-6 0l88 494h417c129 0 174 -32 174 -102c0 -60 -25 -122 -88 -143c42 -11 61 -40 61 -82c0 -122 -87 -167 -225 -167h-427zM197 210l-18 -107h244c38 0 77 18 77 67c0 18 -8 40 -63 40h-240zM229 391l-15 -89h240c50 0 66 30 66 58c0 14 -8 31 -55 31h-236z" />
    <glyph glyph-name="afii10068" unicode="&#x433;" horiz-adv-x="573" 
d="M7 0l88 494h497l-21 -114h-331l-67 -380h-166z" />
    <glyph glyph-name="afii10069" unicode="&#x434;" horiz-adv-x="805" 
d="M69 114c55 48 86 110 99 185l35 195h568l-67 -380h73l-47 -263h-152l27 149h-461l-27 -149h-152l47 263h57zM538 114l47 266h-242l-17 -94c-11 -65 -37 -124 -81 -172h293z" />
    <glyph glyph-name="afii10070" unicode="&#x435;" horiz-adv-x="698" 
d="M520 303c1 8 2 20 2 23c0 38 -19 67 -79 67h-153c-65 0 -92 -42 -100 -90h330zM662 211h-489c-5 -29 -6 -39 -6 -48c0 -32 13 -60 66 -60h192c40 0 63 20 70 59h159c-16 -87 -70 -162 -237 -162h-243c-120 0 -174 61 -174 147c0 13 1 27 4 42l22 125
c15 87 91 182 239 182h236c137 0 181 -71 181 -153c0 -16 -2 -32 -20 -132z" />
    <glyph glyph-name="afii10072" unicode="&#x436;" horiz-adv-x="1010" 
d="M383 0l38 214h-61l-192 -214h-198l286 266l-177 228h187l112 -177h61l32 177h149l-32 -177h61l176 177h187l-259 -228l192 -266h-198l-116 214h-61l-37 -214h-150z" />
    <glyph glyph-name="afii10073" unicode="&#x437;" horiz-adv-x="708" 
d="M184 0c-115 0 -164 36 -164 114c0 13 1 28 4 43h149c-1 -5 -2 -14 -2 -19c0 -21 12 -35 47 -35h204c38 0 78 19 78 65c0 20 -8 42 -63 42h-154l17 92h154c52 0 66 37 66 58c0 14 -7 33 -54 33h-154c-55 0 -86 -14 -93 -53h-149c20 115 78 156 228 156h200
c129 0 174 -34 174 -104c0 -60 -24 -122 -87 -143c42 -11 61 -40 61 -82c0 -122 -86 -167 -226 -167h-236z" />
    <glyph glyph-name="afii10074" unicode="&#x438;" horiz-adv-x="764" 
d="M8 0l88 494h149l-67 -380h18l319 380h237l-88 -494h-149l67 380h-22l-311 -380h-241z" />
    <glyph glyph-name="afii10075" unicode="&#x439;" horiz-adv-x="776" 
d="M-2 0l87 494h149l-67 -380h18l319 380h237l-87 -494h-149l67 380h-22l-311 -380h-241zM354 695c0 -62 19 -70 68 -70c36 0 81 6 92 70h109c-19 -111 -78 -151 -215 -151c-117 0 -167 29 -167 107c0 13 1 28 4 44h109z" />
    <glyph glyph-name="afii10076" unicode="&#x43a;" horiz-adv-x="647" 
d="M257 494l-32 -177h61l199 177h187l-272 -229l205 -265h-198l-139 214h-61l-37 -214h-166l87 494h166z" />
    <glyph glyph-name="afii10077" unicode="&#x43b;" horiz-adv-x="758" 
d="M734 494l-88 -494h-166l67 380h-255l-30 -173c-24 -137 -103 -207 -227 -207h-70l21 114c86 0 102 15 120 116l47 264h581z" />
    <glyph glyph-name="afii10078" unicode="&#x43c;" horiz-adv-x="966" 
d="M112 494h250l91 -380h23l225 380h250l-88 -494h-149l67 380h-21l-231 -380h-171l-97 380h-21l-67 -380h-149z" />
    <glyph glyph-name="afii10079" unicode="&#x43d;" horiz-adv-x="773" 
d="M261 494l-30 -167h331l30 167h166l-88 -494h-166l38 213h-331l-37 -213h-166l87 494h166z" />
    <glyph glyph-name="afii10080" unicode="&#x43e;" horiz-adv-x="770" 
d="M312 496h231c127 0 186 -67 186 -158c0 -13 -2 -26 -4 -40l-19 -105c-20 -113 -109 -193 -250 -193h-232c-122 0 -186 62 -186 155c0 10 2 26 4 40l18 103c19 109 106 198 252 198zM557 285c1 8 2 15 2 22c0 46 -29 75 -92 75h-113c-77 0 -119 -32 -130 -96l-15 -81
c-1 -6 -2 -16 -2 -23c0 -47 32 -68 99 -68h113c73 0 112 26 124 92z" />
    <glyph glyph-name="afii10081" unicode="&#x43f;" horiz-adv-x="773" 
d="M7 0l88 494h663l-88 -494h-166l67 380h-331l-67 -380h-166z" />
    <glyph glyph-name="afii10082" unicode="&#x440;" horiz-adv-x="764" 
d="M276 494l-10 -59c32 26 77 59 153 59h150c121 0 186 -50 186 -146c0 -14 -1 -30 -4 -46l-19 -108c-19 -108 -102 -194 -250 -194h-149c-73 0 -119 39 -132 68l-47 -268h-166l122 694h166zM374 380c-71 0 -121 -42 -131 -94c-6 -31 -15 -79 -15 -95c0 -36 28 -77 99 -77
h112c82 0 120 32 130 93l14 78c1 6 2 19 2 21c0 46 -26 74 -99 74h-112z" />
    <glyph glyph-name="afii10083" unicode="&#x441;" horiz-adv-x="724" 
d="M701 322h-166c1 5 2 17 2 21c0 26 -16 39 -62 39h-157c-60 0 -99 -36 -110 -97c-3 -17 -17 -91 -17 -103c0 -38 24 -68 74 -68h160c62 0 76 17 85 65h166c-21 -118 -72 -179 -250 -179h-236c-114 0 -169 65 -169 147c0 12 1 24 3 36l21 119c20 116 104 194 238 194h225
c137 0 198 -35 198 -126c0 -15 -2 -30 -5 -48z" />
    <glyph glyph-name="afii10084" unicode="&#x442;" horiz-adv-x="682" 
d="M216 0l67 380h-238l21 114h642l-21 -114h-238l-67 -380h-166z" />
    <glyph glyph-name="afii10085" unicode="&#x443;" horiz-adv-x="684" 
d="M95 494h155l75 -356h19l228 356h160l-320 -493c-118 -183 -150 -212 -305 -212h-23l20 114h23c56 0 81 11 135 97h-44z" />
    <glyph glyph-name="afii10086" unicode="&#x444;" horiz-adv-x="1155" 
d="M738 694l-46 -259c33 26 78 59 154 59h85c121 0 186 -51 186 -147c0 -14 -1 -29 -4 -45l-19 -108c-19 -108 -103 -194 -251 -194h-84c-73 0 -119 39 -132 68l-47 -268h-166l48 270c-23 -29 -84 -70 -157 -70h-83c-129 0 -186 66 -186 155c0 6 2 27 4 41l19 108
c22 126 111 190 250 190h85c76 0 109 -31 133 -57l45 257h166zM790 380c-73 0 -114 -36 -124 -93l-14 -80c-1 -8 -2 -20 -2 -23c0 -46 31 -70 94 -70h55c79 0 120 30 131 93l14 80c1 8 2 19 2 22c0 46 -32 71 -101 71h-55zM408 380h-55c-79 0 -120 -30 -131 -91l-14 -83
c-1 -8 -2 -20 -2 -23c0 -47 32 -69 101 -69h55c73 0 114 34 124 94l14 80c1 7 2 18 2 20c0 45 -30 72 -94 72z" />
    <glyph glyph-name="afii10087" unicode="&#x445;" horiz-adv-x="693" 
d="M700 494l-241 -236l173 -258h-185l-110 175l-172 -175h-185l265 258l-157 236h187l94 -150l144 150h187z" />
    <glyph glyph-name="afii10088" unicode="&#x446;" horiz-adv-x="819" 
d="M207 114h331l67 380h166l-67 -380h70l-47 -263h-152l27 149h-581l87 494h166z" />
    <glyph glyph-name="afii10089" unicode="&#x447;" horiz-adv-x="742" 
d="M728 494l-88 -494h-166l42 237c-47 -46 -94 -54 -152 -54h-104c-126 0 -189 56 -189 154c0 15 2 31 5 49l19 108h166l-14 -75c-3 -15 -4 -29 -4 -41c0 -57 30 -81 100 -81h52c84 0 112 15 141 52l26 145h166z" />
    <glyph glyph-name="afii10090" unicode="&#x448;" horiz-adv-x="1151" 
d="M101 494h166l-67 -380h267l67 380h166l-67 -380h267l67 380h166l-88 -494h-1032z" />
    <glyph glyph-name="afii10091" unicode="&#x449;" horiz-adv-x="1179" 
d="M114 494h166l-67 -380h267l67 380h166l-67 -380h267l67 380h166l-67 -380h70l-47 -263h-149l27 149h-953z" />
    <glyph glyph-name="afii10092" unicode="&#x44a;" horiz-adv-x="911" 
d="M57 494h348l-32 -177h293c134 0 180 -37 180 -100c0 -10 -1 -22 -13 -91c-15 -86 -88 -126 -189 -126h-493l69 391h-182zM355 214l-19 -111h252c38 0 90 2 90 70c0 27 -13 41 -71 41h-252z" />
    <glyph glyph-name="afii10093" unicode="&#x44b;" horiz-adv-x="1114" 
d="M100 494h166l-32 -177h293c134 0 180 -37 180 -100c0 -10 -1 -22 -13 -91c-15 -86 -88 -126 -189 -126h-493zM216 214l-19 -111h252c38 0 90 2 90 70c0 27 -13 41 -71 41h-252zM1087 494l-87 -494h-166l87 494h166z" />
    <glyph glyph-name="afii10094" unicode="&#x44c;" horiz-adv-x="772" 
d="M100 494h166l-32 -177h293c134 0 180 -37 180 -100c0 -10 -1 -22 -13 -91c-15 -86 -88 -126 -189 -126h-493zM216 214l-19 -111h252c38 0 90 2 90 70c0 27 -13 41 -71 41h-252z" />
    <glyph glyph-name="afii10095" unicode="&#x44d;" horiz-adv-x="724" 
d="M259 302h272c1 6 2 20 2 23c0 46 -28 68 -78 68h-150c-57 0 -81 -16 -90 -68h-166c23 132 103 171 262 171h216c116 0 174 -48 174 -146c0 -14 -1 -29 -4 -45l-21 -122c-17 -99 -102 -183 -232 -183h-236c-146 0 -191 40 -191 120c0 18 2 37 6 59h166
c-3 -15 -4 -26 -4 -36c0 -30 15 -40 62 -40h160c55 0 101 36 107 107h-272z" />
    <glyph glyph-name="afii10096" unicode="&#x44e;" horiz-adv-x="1087" 
d="M265 494l-31 -172h147c16 91 106 172 248 172h232c126 0 185 -63 185 -153c0 -10 -2 -30 -4 -42l-18 -104c-19 -107 -110 -195 -250 -195h-232c-122 0 -185 64 -185 162c0 15 1 30 4 46h-147l-36 -208h-166l87 494h166zM670 380c-77 0 -118 -29 -129 -93l-14 -81
c-1 -8 -2 -20 -2 -23c0 -47 32 -69 99 -69h113c74 0 111 28 123 93l14 79c1 8 2 21 2 22c0 46 -29 72 -93 72h-113z" />
    <glyph glyph-name="afii10097" unicode="&#x44f;" horiz-adv-x="772" 
d="M759 494l-88 -494h-166l32 177h-141l-194 -177h-204l207 177c-89 0 -141 42 -141 107c0 8 2 25 13 85c16 86 88 125 189 125h493zM555 280l19 111h-252c-60 0 -91 -15 -91 -70c0 -26 14 -41 72 -41h252z" />
    <glyph glyph-name="Euro" unicode="&#x20ac;" horiz-adv-x="860" 
d="M844 648l-24 -140c-32 30 -107 65 -227 65c-151 0 -234 -56 -268 -111h430l-61 -87h-403c-2 -5 -4 -14 -6 -24c-2 -12 -3 -25 -3 -30h374l-62 -88h-305c15 -56 84 -104 227 -104c108 0 201 35 249 68l-26 -144c-34 -19 -123 -53 -253 -53c-231 0 -352 84 -368 233h-113
l62 88h56c1 7 1 15 4 28c2 12 4 20 6 26h-103l62 87h66c62 116 187 241 452 241c118 0 202 -32 234 -55z" />
    </font>
</defs>
</svg>
