<svg width="37" height="37" viewBox="0 0 37 37" fill="none" xmlns="http://www.w3.org/2000/svg">
<path d="M34.0591 26.0253L30.3011 23.8556L33.5578 21.9353C34.1585 21.581 34.3583 20.807 34.0041 20.2063C33.6499 19.6058 32.876 19.406 32.2751 19.76L27.789 22.4053L21.0248 18.4999L27.7878 14.5952L32.2753 17.2402C32.4765 17.3588 32.6973 17.4151 32.9152 17.4151C33.3475 17.4151 33.7686 17.1929 34.0041 16.7934C34.3581 16.1927 34.1581 15.4186 33.5574 15.0644L30.3002 13.1447L34.0591 10.9745C34.663 10.6259 34.8699 9.85366 34.5212 9.24979C34.1726 8.64575 33.4004 8.43885 32.7965 8.78767L29.0384 10.9575L29.0043 7.17623C28.998 6.47893 28.426 5.91546 27.7304 5.92506C27.0331 5.93129 26.4728 6.50165 26.4792 7.19896L26.5262 12.4079L19.7624 16.3131V8.50333L24.2972 5.94038C24.9043 5.59728 25.1183 4.82708 24.7752 4.21985C24.4321 3.61278 23.6617 3.39864 23.0546 3.7419L19.7624 5.60267V1.26262C19.7624 0.565317 19.1971 0 18.4998 0C17.8025 0 17.2372 0.565317 17.2372 1.26262V5.60267L13.9449 3.74207C13.3375 3.39881 12.5676 3.61278 12.2244 4.22001C11.8813 4.82708 12.0953 5.59745 12.7023 5.94055L17.237 8.5035V16.3131L10.4732 12.4079L10.5202 7.19896C10.5266 6.50165 9.96631 5.93129 9.26901 5.92506C9.26513 5.92506 9.26143 5.92506 9.25739 5.92506C8.56547 5.92506 8.00134 6.4828 7.99511 7.1764L7.96093 10.9575L4.20287 8.78767C3.599 8.43885 2.82678 8.64592 2.47813 9.24979C2.12948 9.85366 2.33638 10.6259 2.94025 10.9745L6.69898 13.1447L3.44126 15.0647C2.84058 15.4188 2.64059 16.1929 2.99462 16.7937C3.23014 17.1932 3.65119 17.4154 4.08368 17.4154C4.30152 17.4154 4.52223 17.359 4.72357 17.2405L9.2116 14.5956L15.9747 18.5003L9.21042 22.4056L4.72357 19.7598C4.12324 19.4058 3.34883 19.6055 2.99462 20.2061C2.64042 20.8068 2.84025 21.5809 3.44092 21.9349L6.69814 23.8554L2.94008 26.0251C2.33621 26.3738 2.12931 27.146 2.47796 27.7499C2.7118 28.1549 3.13621 28.3814 3.57257 28.3814C3.78671 28.3814 4.00388 28.3268 4.2027 28.212L7.96076 26.0421L7.99494 29.8236C8.00117 30.517 8.56531 31.0749 9.25722 31.0749C9.26109 31.0749 9.26497 31.0749 9.26884 31.0748C9.96614 31.0685 10.5264 30.4982 10.52 29.8009L10.473 24.5918L17.237 20.6866V28.4965L12.7023 31.0595C12.0953 31.4026 11.8813 32.1727 12.2244 32.78C12.4565 33.1908 12.8843 33.4216 13.3247 33.4216C13.5351 33.4216 13.7486 33.3689 13.9449 33.2579L17.2372 31.3973V35.7374C17.2372 36.4347 17.8025 37 18.4998 37C19.1971 37 19.7624 36.4347 19.7624 35.7374V31.3973L23.0546 33.2579C23.2509 33.3689 23.4642 33.4216 23.6748 33.4216C24.1152 33.4216 24.543 33.1908 24.7752 32.78C25.1183 32.1729 24.9043 31.4026 24.2972 31.0595L19.7624 28.4965V20.6868L26.5262 24.5918L26.478 29.8007C26.4715 30.498 27.0316 31.0685 27.7289 31.0749C27.7329 31.0751 27.7368 31.0751 27.7408 31.0751C28.4326 31.0751 28.9967 30.5174 29.0031 29.8241L29.0381 26.0421L32.7967 28.2122C32.9955 28.327 33.2127 28.3815 33.4268 28.3815C33.8632 28.3815 34.2876 28.1549 34.5214 27.75C34.8701 27.1462 34.6632 26.374 34.0591 26.0253Z" fill="#2B95E2"/>
</svg>
