<svg width="35" height="35" viewBox="0 0 35 35" fill="none" xmlns="http://www.w3.org/2000/svg">
<path d="M7.50039 22.8569C5.72804 22.8569 4.28613 24.2988 4.28613 26.0712C4.28613 27.8435 5.72804 29.2854 7.50039 29.2854C9.27274 29.2854 10.7146 27.8435 10.7146 26.0712C10.7146 24.2988 9.27274 22.8569 7.50039 22.8569ZM7.50039 27.1427C6.90963 27.1427 6.42899 26.662 6.42899 26.0713C6.42899 25.4805 6.90963 24.9999 7.50039 24.9999C8.09115 24.9999 8.57179 25.4805 8.57179 26.0713C8.57179 26.662 8.09122 27.1427 7.50039 27.1427Z" fill="#2B95E2"/>
<path d="M17.5004 22.8569C15.728 22.8569 14.2861 24.2988 14.2861 26.0712C14.2861 27.8435 15.728 29.2854 17.5004 29.2854C19.2727 29.2854 20.7147 27.8435 20.7147 26.0712C20.7147 24.2988 19.2727 22.8569 17.5004 22.8569ZM17.5004 27.1427C16.9096 27.1427 16.429 26.662 16.429 26.0713C16.429 25.4805 16.9096 24.9999 17.5004 24.9999C18.0912 24.9999 18.5718 25.4805 18.5718 26.0713C18.5718 26.662 18.0912 27.1427 17.5004 27.1427Z" fill="#2B95E2"/>
<path d="M27.5004 22.8569C25.728 22.8569 24.2861 24.2988 24.2861 26.0712C24.2861 27.8435 25.728 29.2854 27.5004 29.2854C29.2727 29.2854 30.7146 27.8435 30.7146 26.0712C30.7146 24.2988 29.2727 22.8569 27.5004 22.8569ZM27.5004 27.1427C26.9096 27.1427 26.429 26.662 26.429 26.0713C26.429 25.4805 26.9096 24.9999 27.5004 24.9999C28.0912 24.9999 28.5718 25.4805 28.5718 26.0713C28.5718 26.662 28.0912 27.1427 27.5004 27.1427Z" fill="#2B95E2"/>
<path d="M35 16.4287V1.42871H9.64284C4.32578 1.42871 0 5.75449 0 11.0716V16.4287H6.42858V18.6484C2.79877 19.17 0 22.2999 0 26.0716C0 30.2071 3.36451 33.5716 7.49998 33.5716H27.5C31.6354 33.5716 34.9999 30.2071 34.9999 26.0716C34.9999 22.2999 32.2012 19.17 28.5713 18.6484V16.4287H35ZM15 3.57157H20V5.71443H22.1429V3.57157H24.2858V5.71443H26.4286V3.57157H28.5715V5.71443H30.7143V3.57157H32.8572V10.0002H15V3.57157ZM9.64284 3.57157H12.8571V10.0002H2.2197C2.74121 6.37041 5.87105 3.57157 9.64284 3.57157ZM32.8571 26.0716C32.8571 29.0255 30.4539 31.4287 27.5 31.4287H7.49998C4.54603 31.4287 2.14286 29.0255 2.14286 26.0716C2.14286 23.1177 4.5461 20.7145 7.49998 20.7145H27.5C30.4539 20.7144 32.8571 23.1176 32.8571 26.0716ZM8.57145 18.5715V16.4287H26.4286V18.5715H8.57145ZM2.14286 14.2859V12.143H32.8571V14.2859H2.14286Z" fill="#2B95E2"/>
</svg>
