<svg width="37" height="21" viewBox="0 0 37 21" fill="" xmlns="http://www.w3.org/2000/svg">
<path d="M20.8262 10.4998C20.8262 16.2988 16.1641 21 10.4129 21C4.66176 21 0 16.3002 0 10.4998C0 4.69944 4.66212 0 10.4129 0C16.1638 0 20.8262 4.70086 20.8262 10.4998Z" fill=""/>
<path d="M32.2492 10.4997C32.2492 15.9588 29.918 20.3838 27.0426 20.3838C24.1672 20.3838 21.8359 15.9573 21.8359 10.4997C21.8359 5.04214 24.1672 0.615723 27.0426 0.615723C29.918 0.615723 32.2492 5.04214 32.2492 10.4997Z" fill=""/>
<path d="M36.9223 10.4998C36.9223 15.3909 36.1023 19.3555 35.091 19.3555C34.0797 19.3555 33.2598 15.3894 33.2598 10.4998C33.2598 5.61024 34.0797 1.64417 35.0914 1.64417C36.103 1.64417 36.9223 5.60918 36.9223 10.4998Z" fill=""/>
</svg>
