<svg width="28" height="23" viewBox="0 0 28 23" fill="" xmlns="http://www.w3.org/2000/svg">
<path d="M28 3.12831C26.9587 3.56875 25.8492 3.86069 24.6925 4.00244C25.8825 3.31731 26.7908 2.24069 27.2178 0.943C26.1083 1.58087 24.8832 2.03144 23.5777 2.28288C22.5243 1.20119 21.0227 0.53125 19.3848 0.53125C16.2067 0.53125 13.6482 3.01863 13.6482 6.06794C13.6482 6.50669 13.6868 6.92856 13.7812 7.33019C9.009 7.10575 4.78625 4.90019 1.9495 1.54038C1.45425 2.36894 1.16375 3.31731 1.16375 4.33825C1.16375 6.25525 2.1875 7.95456 3.7135 8.93837C2.79125 8.9215 1.8865 8.66331 1.12 8.25663C1.12 8.2735 1.12 8.29544 1.12 8.31737C1.12 11.0072 3.10975 13.2415 5.719 13.7562C5.25175 13.8794 4.7425 13.9384 4.214 13.9384C3.8465 13.9384 3.4755 13.9182 3.12725 13.8439C3.871 16.036 5.9815 17.6476 8.491 17.6999C6.538 19.1731 4.05825 20.0607 1.37375 20.0607C0.903 20.0607 0.4515 20.0404 0 19.9847C2.54275 21.5659 5.55625 22.4688 8.806 22.4688C19.369 22.4688 25.144 14.0312 25.144 6.71762C25.144 6.47294 25.1353 6.23669 25.123 6.00213C26.2622 5.2225 27.2195 4.24881 28 3.12831Z" fill=""/>
</svg>
