<svg width="34" height="34" viewBox="0 0 34 34" fill="none" xmlns="http://www.w3.org/2000/svg">
<path d="M29.3204 5.28637C26.2234 2.02995 21.8488 0 17 0C7.61119 0 0 7.61119 0 17C0 19.6145 0.590192 22.0911 1.64461 24.3039L4.09805 9.17434L6.40518 19.7872L13.6618 4.7902L11.0823 19.751L29.3204 5.28637Z" fill="#393939"/>
<path d="M30.7067 6.9425L12.5236 27.4397L21.8336 30.2328L10.7568 32.8173C12.6895 33.5807 14.7956 34.0002 16.9997 34.0002C26.3885 34.0002 33.9997 26.389 33.9997 17.0002C33.9997 13.2368 32.7768 9.75894 30.7067 6.9425Z" fill="#393939"/>
<path d="M7.83043 31.3177L13.5822 29.9756L8.72548 28.5187L21.2543 14.3953L8.04215 24.8739L9.00435 19.293L5.63594 26.2544L4.4014 20.5755L3.33984 27.1218C4.5686 28.7772 6.09118 30.2016 7.83043 31.3177Z" fill="#393939"/>
</svg>
