<?xml version="1.0" encoding="UTF-8"?> <svg xmlns="http://www.w3.org/2000/svg" width="319" height="48" viewBox="0 0 319 48" fill="none"> <path d="M87.68 17.16V31H85.86V20.68L81.26 31H79.98L75.36 20.66V31H73.54V17.16H75.5L80.62 28.6L85.74 17.16H87.68Z" fill="#F2F2F2"></path> <path d="M106.487 18.54V23.2H111.567V24.7H106.487V29.5H112.167V31H104.667V17.04H112.167V18.54H106.487Z" fill="#F2F2F2"></path> <path d="M137.4 17.06V18.54H133.6V31H131.78V18.54H127.96V17.06H137.4Z" fill="#F2F2F2"></path> <path d="M155.361 18.54V23.2H160.441V24.7H155.361V29.5H161.041V31H153.541V17.04H161.041V18.54H155.361Z" fill="#F2F2F2"></path> <path d="M184.015 31.14C182.721 31.14 181.541 30.84 180.475 30.24C179.408 29.6267 178.561 28.78 177.935 27.7C177.321 26.6067 177.015 25.38 177.015 24.02C177.015 22.66 177.321 21.44 177.935 20.36C178.561 19.2667 179.408 18.42 180.475 17.82C181.541 17.2067 182.721 16.9 184.015 16.9C185.321 16.9 186.508 17.2067 187.575 17.82C188.641 18.42 189.481 19.26 190.095 20.34C190.708 21.42 191.015 22.6467 191.015 24.02C191.015 25.3933 190.708 26.62 190.095 27.7C189.481 28.78 188.641 29.6267 187.575 30.24C186.508 30.84 185.321 31.14 184.015 31.14ZM184.015 29.56C184.988 29.56 185.861 29.3333 186.635 28.88C187.421 28.4267 188.035 27.78 188.475 26.94C188.928 26.1 189.155 25.1267 189.155 24.02C189.155 22.9 188.928 21.9267 188.475 21.1C188.035 20.26 187.428 19.6133 186.655 19.16C185.881 18.7067 185.001 18.48 184.015 18.48C183.028 18.48 182.148 18.7067 181.375 19.16C180.601 19.6133 179.988 20.26 179.535 21.1C179.095 21.9267 178.875 22.9 178.875 24.02C178.875 25.1267 179.095 26.1 179.535 26.94C179.988 27.78 180.601 28.4267 181.375 28.88C182.161 29.3333 183.041 29.56 184.015 29.56Z" fill="#F2F2F2"></path> <path d="M214.657 31L211.337 25.3H209.137V31H207.317V17.06H211.817C212.871 17.06 213.757 17.24 214.477 17.6C215.211 17.96 215.757 18.4467 216.117 19.06C216.477 19.6733 216.657 20.3733 216.657 21.16C216.657 22.12 216.377 22.9667 215.817 23.7C215.271 24.4333 214.444 24.92 213.337 25.16L216.837 31H214.657ZM209.137 23.84H211.817C212.804 23.84 213.544 23.6 214.037 23.12C214.531 22.6267 214.777 21.9733 214.777 21.16C214.777 20.3333 214.531 19.6933 214.037 19.24C213.557 18.7867 212.817 18.56 211.817 18.56H209.137V23.84Z" fill="#F2F2F2"></path> <path d="M235.205 17.06V31H233.385V17.06H235.205Z" fill="#F2F2F2"></path> <path d="M260.787 17.06V18.54H256.987V31H255.167V18.54H251.347V17.06H260.787Z" fill="#F2F2F2"></path> <path d="M278.707 17.06V25.88C278.707 27.12 279.007 28.04 279.607 28.64C280.221 29.24 281.067 29.54 282.147 29.54C283.214 29.54 284.047 29.24 284.647 28.64C285.261 28.04 285.568 27.12 285.568 25.88V17.06H287.388V25.86C287.388 27.02 287.154 28 286.688 28.8C286.221 29.5867 285.588 30.1733 284.788 30.56C284.001 30.9467 283.114 31.14 282.128 31.14C281.141 31.14 280.248 30.9467 279.448 30.56C278.661 30.1733 278.034 29.5867 277.568 28.8C277.114 28 276.888 27.02 276.888 25.86V17.06H278.707Z" fill="#F2F2F2"></path> <path d="M318.464 17.16V31H316.644V20.68L312.044 31H310.764L306.144 20.66V31H304.324V17.16H306.284L311.404 28.6L316.524 17.16H318.464Z" fill="#F2F2F2"></path> <path d="M41.3935 7.4631C37.0212 2.86581 30.8453 0 24 0C10.7452 0 0 10.7452 0 24C0 27.691 0.833211 31.1874 2.3218 34.3114L5.78548 12.952L9.0426 27.9348L19.2872 6.76263L15.6456 27.8838L41.3935 7.4631Z" fill="#F2F2F2"></path> <path d="M43.3511 9.80096L17.6809 38.7382L30.8244 42.6813L15.1866 46.3301C17.9151 47.4078 20.8884 48 24 48C37.2548 48 48 37.2548 48 24C48 18.687 46.2736 13.7771 43.3511 9.80096Z" fill="#F2F2F2"></path> <path d="M11.0555 44.2134L19.1756 42.3187L12.3191 40.2618L30.0068 20.3229L11.3544 35.1162L12.7128 27.2374L7.9574 37.0652L6.21452 29.048L4.71586 38.2897C6.45057 40.6268 8.60009 42.6377 11.0555 44.2134Z" fill="#F2F2F2"></path> </svg> 