<svg width="37" height="37" viewBox="0 0 37 37" fill="none" xmlns="http://www.w3.org/2000/svg">
<path d="M31.9075 5.75281C28.5372 2.20906 23.7766 0 18.5 0C8.28277 0 0 8.28277 0 18.5C0 21.3452 0.642267 24.0403 1.78972 26.4484L4.45964 9.98384L6.97034 21.5331L14.8672 5.21287L12.0602 21.4938L31.9075 5.75281Z" fill="#F2F2F2"/>
<path d="M33.4167 7.55518L13.6292 29.861L23.7607 32.9005L11.7065 35.7131C13.8098 36.5438 16.1017 37.0003 18.5002 37.0003C28.7175 37.0003 37.0002 28.7175 37.0002 18.5003C37.0002 14.4048 35.6695 10.6201 33.4167 7.55518Z" fill="#F2F2F2"/>
<path d="M8.52158 34.0811L14.7808 32.6206L9.4956 31.0351L23.1299 15.6655L8.75198 27.0687L9.79908 20.9955L6.13346 28.5711L4.78998 22.3911L3.63477 29.515C4.97194 31.3165 6.62886 32.8665 8.52158 34.0811Z" fill="#F2F2F2"/>
</svg>
